<svg width="24" height="24" viewBox="0 0 24 24" fill="none" xmlns="http://www.w3.org/2000/svg">
<path d="M17.517 15.5095C17.517 17.1335 16.9519 18.5154 15.8218 19.6552C14.6918 20.7952 13.3162 21.3652 11.695 21.3652C10.0739 21.3652 8.69661 20.7952 7.56328 19.6552C6.42995 18.5154 5.86328 17.1335 5.86328 15.5095V6.51899C5.86328 5.36515 6.26395 4.3844 7.06528 3.57673C7.86645 2.76907 8.84395 2.36523 9.99778 2.36523C11.1516 2.36523 12.1292 2.76907 12.9305 3.57673C13.7319 4.3844 14.1325 5.36515 14.1325 6.51899V15.0287C14.1325 15.7056 13.8968 16.2834 13.4253 16.7622C12.9536 17.2411 12.3789 17.4805 11.7013 17.4805C11.0234 17.4805 10.4451 17.2427 9.96628 16.7672C9.48745 16.2917 9.24803 15.7122 9.24803 15.0287V6.24998H10.7478V15.0287C10.7478 15.2967 10.8379 15.5224 11.018 15.7057C11.1982 15.8891 11.4223 15.9807 11.6903 15.9807C11.9581 15.9807 12.1821 15.8891 12.3623 15.7057C12.5424 15.5224 12.6325 15.2967 12.6325 15.0287V6.50948C12.6222 5.77098 12.3657 5.14565 11.863 4.63348C11.3604 4.12132 10.7386 3.86523 9.99778 3.86523C9.26011 3.86523 8.63661 4.1229 8.12728 4.63823C7.61795 5.15373 7.36328 5.78065 7.36328 6.51899V15.5095C7.35295 16.7185 7.77086 17.7467 8.61703 18.594C9.4632 19.4415 10.4904 19.8652 11.6985 19.8652C12.8895 19.8652 13.9019 19.4415 14.7358 18.594C15.5694 17.7467 15.9965 16.7185 16.017 15.5095V6.24998H17.517V15.5095Z" fill="#4D7CFF"/>
</svg>
