<svg width="24" height="24" viewBox="0 0 24 24" fill="none" xmlns="http://www.w3.org/2000/svg">
<g clip-path="url(#clip0_8572_24361)">
<path d="M3 19.975V18H5.35V9.4C5.35 7.77458 5.83958 6.33051 6.81875 5.06778C7.79792 3.80504 9.07083 2.97745 10.6375 2.585V1.7625C10.6375 1.27292 10.809 0.856969 11.1521 0.514653C11.4952 0.172336 11.9112 0.000786004 12.4 2.67045e-06C12.8888 -0.000780663 13.3051 0.170769 13.649 0.514653C13.9929 0.858536 14.1641 1.27449 14.1625 1.7625V2.585C15.7292 2.97667 17.0021 3.80426 17.9812 5.06778C18.9604 6.33129 19.45 7.77537 19.45 9.4L19.5 18H21.8V19.975H3ZM12.4 23.5C11.7537 23.5 11.2007 23.2701 10.7409 22.8103C10.2811 22.3505 10.0508 21.797 10.05 21.15H14.75C14.75 21.7962 14.5201 22.3497 14.0603 22.8103C13.6005 23.2709 13.047 23.5008 12.4 23.5ZM7.5 18H17.5V9.4C17.5 8.1075 16.9204 6.42042 16 5.5C15.0796 4.57958 13.7925 4 12.5 4C10.5 4 9.42042 5.07958 8.5 6C7.57958 6.92042 7.5 8.1075 7.5 9.4V18Z" fill="black"/>
</g>
<defs>
<clipPath id="clip0_8572_24361">
<rect width="24" height="24" fill="white"/>
</clipPath>
</defs>
</svg>
