<svg width="24" height="25" viewBox="0 0 24 25" fill="none" xmlns="http://www.w3.org/2000/svg">
<path fill-rule="evenodd" clip-rule="evenodd" d="M7.99961 1.59961C7.50255 1.59961 7.09961 2.00255 7.09961 2.49961V3.59961H4.99961C3.39798 3.59961 2.09961 4.89798 2.09961 6.49961V20.4996C2.09961 22.1012 3.39798 23.3996 4.99961 23.3996H18.9996C20.6012 23.3996 21.8996 22.1012 21.8996 20.4996V6.49961C21.8996 4.89798 20.6012 3.59961 18.9996 3.59961H16.8996V2.49961C16.8996 2.00255 16.4967 1.59961 15.9996 1.59961C15.5026 1.59961 15.0996 2.00255 15.0996 2.49961V3.59961H8.89961V2.49961C8.89961 2.00255 8.49667 1.59961 7.99961 1.59961ZM3.89961 6.49961C3.89961 5.8921 4.3921 5.39961 4.99961 5.39961H7.09961V6.49961C7.09961 6.99667 7.50255 7.39961 7.99961 7.39961C8.49667 7.39961 8.89961 6.99667 8.89961 6.49961V5.39961H15.0996V6.49961C15.0996 6.99667 15.5026 7.39961 15.9996 7.39961C16.4967 7.39961 16.8996 6.99667 16.8996 6.49961V5.39961H18.9996C19.6071 5.39961 20.0996 5.8921 20.0996 6.49961V9.59961H3.89961V6.49961ZM3.89961 20.4996V11.3996H20.0996V20.4996C20.0996 21.1071 19.6071 21.5996 18.9996 21.5996H4.99961C4.3921 21.5996 3.89961 21.1071 3.89961 20.4996Z" fill="#7C8AA6"/>
</svg>
