<svg xmlns="http://www.w3.org/2000/svg" xml:space="preserve" style="enable-background:new 0 0 512.006 512.006" viewBox="0 0 512.006 512.006"><path d="m511.917 393.263-38.979-292.24c-2.813-21.104-21-37.021-42.292-37.021H181.333a10.66 10.66 0 0 0-10.667 10.667 10.66 10.66 0 0 0 10.667 10.667h249.313c10.646 0 19.75 7.958 21.146 18.51l14.604 109.49h-81.253l58.669-44.865c4.688-3.573 5.563-10.271 2-14.948-3.604-4.698-10.292-5.552-14.958-1.99l-80.818 61.802H181.333c-6.132 0-12.19.323-18.167.921l-82.021-62.723c-4.688-3.563-11.354-2.708-14.958 1.99-3.562 4.677-2.687 11.375 2 14.948l66.811 51.09C57.428 240.117 0 310.719 0 394.669a10.66 10.66 0 0 0 10.667 10.667H98.96l-30.772 23.531c-4.687 3.573-5.562 10.271-2 14.948a10.64 10.64 0 0 0 8.479 4.188c2.271 0 4.542-.719 6.479-2.198l52.921-40.469h243.867l52.921 40.469a10.63 10.63 0 0 0 6.479 2.198 10.64 10.64 0 0 0 8.479-4.188c3.563-4.677 2.688-11.375-2-14.948l-30.772-23.531h88.293c3.083 0 6-1.323 8.021-3.635a10.756 10.756 0 0 0 2.562-8.438zM322.138 234.67 256 285.246l-66.138-50.577h132.276zM126.857 384.003H21.688c4.969-75.233 62.236-136.24 135.658-147.352l81.102 62.018-111.591 85.334zm35.107 0L256 312.093l94.036 71.91H161.964zm223.179 0-111.59-85.333 83.693-64H469.25l19.896 149.333H385.143z"/></svg>
