<svg width="24" height="24" viewBox="0 0 24 24" fill="none" xmlns="http://www.w3.org/2000/svg">
<path d="M6.9875 18.9997V18.692V5.99973V5.98723H7H17H17.0125V5.99973V18.692C17.0125 18.7729 16.9786 18.8464 16.9126 18.9123M6.9875 18.9997L16.9038 18.9035M6.9875 18.9997H7.0125V18.8255M6.9875 18.9997L7.0125 18.8255M16.9126 18.9123L16.9038 18.9035M16.9126 18.9123C16.9126 18.9123 16.9126 18.9123 16.9126 18.9123L16.9038 18.9035M16.9126 18.9123C16.8467 18.9784 16.7731 19.0122 16.6923 19.0122H7.30775C7.21497 19.0122 7.13792 18.9823 7.07766 18.9221C7.04917 18.8936 7.02747 18.8613 7.0125 18.8255M16.9038 18.9035C16.8398 18.9677 16.7692 18.9997 16.6923 18.9997H7.30775C7.21792 18.9997 7.14417 18.9709 7.0865 18.9132C7.05075 18.8775 7.02609 18.8356 7.0125 18.7875V18.8255M7 5.99973V6.01223V5.99973ZM5.5125 5.99973V5.98723H5.5H4.5125V4.51223H9H9.0125V4.49973V3.62773H14.9875V4.49973V4.51223H15H19.4875V5.98723H18.5H18.4875V5.99973V18.692C18.4875 19.1939 18.3138 19.6183 17.9662 19.9659C17.6186 20.3135 17.1942 20.4872 16.6923 20.4872H7.30775C6.8124 20.4872 6.38958 20.312 6.03859 19.9611C5.68776 19.6102 5.5125 19.1873 5.5125 18.692V5.99973ZM10.8913 8.01223V16.9872H9.4165V8.01223H10.8913ZM14.5835 8.01223V16.9872H13.1087V8.01223H14.5835Z" fill="#4D5A74" stroke="#4D5A74" stroke-width="0.025"/>
</svg>
