<svg width="24" height="24" viewBox="0 0 24 24" fill="none" xmlns="http://www.w3.org/2000/svg">
<path fill-rule="evenodd" clip-rule="evenodd" d="M18.9996 1.27148C18.51 1.27148 18.0252 1.36792 17.5728 1.55529C17.1205 1.74266 16.7095 2.0173 16.3632 2.36352L2.86323 15.8635C2.75248 15.9743 2.67255 16.112 2.63134 16.2631L1.13134 21.7631C1.04636 22.0747 1.13486 22.4079 1.36323 22.6363C1.59161 22.8647 1.92485 22.9532 2.23644 22.8682L7.73643 21.3682C7.88754 21.327 8.02528 21.2471 8.13603 21.1363L21.636 7.63631C21.9822 7.29009 22.2569 6.87907 22.4442 6.42672C22.6316 5.97436 22.7281 5.48953 22.7281 4.99991C22.7281 4.51029 22.6316 4.02546 22.4442 3.5731C22.2569 3.12075 21.9822 2.70973 21.636 2.36351C21.2898 2.0173 20.8788 1.74266 20.4264 1.55529C19.9741 1.36792 19.4893 1.27148 18.9996 1.27148ZM18.2617 3.21828C18.4956 3.12136 18.7464 3.07148 18.9996 3.07148C19.2529 3.07148 19.5036 3.12136 19.7376 3.21828C19.9716 3.31519 20.1842 3.45724 20.3632 3.63631C20.5423 3.81538 20.6844 4.02797 20.7813 4.26194C20.8782 4.4959 20.9281 4.74667 20.9281 4.99991C20.9281 5.25316 20.8782 5.50392 20.7813 5.73789C20.6844 5.97186 20.5423 6.18444 20.3632 6.36352L7.03224 19.6945L3.28233 20.7172L4.30503 16.9673L17.636 3.63631C17.8151 3.45724 18.0277 3.31519 18.2617 3.21828Z" fill="#4D5A74"/>
</svg>
