<svg width="24" height="24" viewBox="0 0 24 24" fill="none" xmlns="http://www.w3.org/2000/svg">
<path fill-rule="evenodd" clip-rule="evenodd" d="M8.72741 15.5283C9.70941 16.177 10.8164 16.5013 12.0484 16.5013C12.6882 16.5013 13.2953 16.4116 13.8697 16.2321C13.9299 16.2133 13.9898 16.1936 14.0491 16.173L16.8774 19.0013H5.30816C5.21832 19.0013 5.14457 18.9725 5.08691 18.9148C5.02924 18.8572 5.00041 18.7834 5.00041 18.6936V7.12434L8.50582 10.6298C8.29542 10.78 8.09519 10.9443 7.90516 11.1226C7.33399 11.6584 6.88174 12.2847 6.54841 13.0013C7.01907 14.0372 7.74541 14.8795 8.72741 15.5283ZM20.6619 20.6628L19.5927 21.7166L18.3582 20.4821C18.3262 20.4884 18.2973 20.4933 18.2717 20.4966C18.246 20.4998 18.2171 20.5013 18.1849 20.5013H5.30816C4.80949 20.5013 4.38349 20.3248 4.03016 19.9716C3.67699 19.6183 3.50041 19.1923 3.50041 18.6936V5.81684C3.50041 5.78468 3.50199 5.75576 3.50516 5.73009C3.50849 5.70443 3.51657 5.67884 3.52941 5.65334L2.28516 4.39359L3.33891 3.33984L20.6619 20.6628ZM13.0778 15.2017C12.7425 15.2733 12.3994 15.3091 12.0484 15.3091C11.1792 15.3091 10.3757 15.1058 9.63791 14.6993C8.90007 14.293 8.30491 13.727 7.85241 13.0013C8.20491 12.4565 8.63466 12.0011 9.14166 11.6351C9.21369 11.5831 9.28691 11.5332 9.36131 11.4852L13.0778 15.2017ZM16.0734 13.2493L16.9177 14.0936C17.0523 13.9218 17.1677 13.7448 17.2639 13.5628C17.3601 13.3808 17.4517 13.1937 17.5389 13.0013C17.1067 12.0232 16.4234 11.2193 15.4889 10.5898C14.5542 9.96034 13.5157 9.61351 12.3734 9.54934L13.8869 11.0628C14.3779 11.2462 14.8234 11.5017 15.2234 11.8293C15.6234 12.1568 15.9606 12.5475 16.2349 13.0013C16.2081 13.045 16.1812 13.0863 16.1542 13.1253C16.1273 13.1645 16.1004 13.2058 16.0734 13.2493ZM19.0004 16.1763L20.5004 17.6763V5.30909C20.5004 4.81043 20.3238 4.38443 19.9707 4.03109C19.6173 3.67793 19.1913 3.50134 18.6927 3.50134H6.32541L10.9024 8.07834H19.0004V16.1763Z" fill="#4D5A74"/>
</svg>
