<svg width="24" height="24" viewBox="0 0 24 24" fill="none" xmlns="http://www.w3.org/2000/svg">
<path fill-rule="evenodd" clip-rule="evenodd" d="M11.9993 8.09961C9.84542 8.09961 8.09933 9.8457 8.09933 11.9996C8.09933 14.1535 9.84542 15.8996 11.9993 15.8996C14.1532 15.8996 15.8993 14.1535 15.8993 11.9996C15.8993 9.8457 14.1532 8.09961 11.9993 8.09961ZM9.89933 11.9996C9.89933 10.8398 10.8395 9.89961 11.9993 9.89961C13.1591 9.89961 14.0993 10.8398 14.0993 11.9996C14.0993 13.1594 13.1591 14.0996 11.9993 14.0996C10.8395 14.0996 9.89933 13.1594 9.89933 11.9996Z" fill="#4D5A74"/>
<path fill-rule="evenodd" clip-rule="evenodd" d="M0.400462 12.7846L0.383668 12.7547L0.373234 12.7599L0.196106 12.4056L0.194972 12.4033L0.194349 12.4021C0.0674892 12.1484 0.0683875 11.849 0.194902 11.596L0.196459 11.5929L0.199282 11.5873L0.200081 11.5858L0.210136 11.5661L0.210606 11.5652C0.219967 11.5469 0.233267 11.5213 0.250475 11.4888C0.284883 11.4238 0.334957 11.3311 0.400462 11.2146C0.531406 10.9818 0.724417 10.6535 0.977673 10.2613C1.48307 9.47879 2.23423 8.43314 3.21775 7.38406C5.1683 5.30348 8.13971 3.09961 11.9993 3.09961C15.859 3.09961 18.8304 5.30348 20.7809 7.38406C21.7644 8.43315 22.5156 9.47879 23.021 10.2613C23.2743 10.6535 23.4673 10.9818 23.5982 11.2146C23.6637 11.3311 23.7138 11.4238 23.7482 11.4888C23.7654 11.5213 23.7787 11.547 23.7881 11.5652L23.7885 11.5661L23.7994 11.5874L23.8026 11.5937L23.8041 11.5967C23.9308 11.8501 23.9304 12.1498 23.8038 12.4032L23.8022 12.4062L23.7994 12.4118L23.7986 12.4135L23.7885 12.4331L23.7881 12.4341C23.7787 12.4523 23.7654 12.4779 23.7482 12.5104C23.7138 12.5754 23.6637 12.6681 23.5982 12.7846C23.4673 13.0174 23.2743 13.3457 23.021 13.7379C22.5156 14.5204 21.7644 15.5661 20.7809 16.6152C18.8304 18.6957 15.859 20.8996 11.9993 20.8996C8.13971 20.8996 5.1683 18.6957 3.21775 16.6152C2.23423 15.5661 1.48307 14.5204 0.977673 13.7379C0.724417 13.3457 0.531406 13.0174 0.400462 12.7846ZM4.53092 8.61516C6.33022 6.69589 8.85882 4.89961 11.9993 4.89961C15.1398 4.89961 17.6684 6.69589 19.4678 8.61516C20.3592 9.56607 21.0456 10.5204 21.5089 11.2379C21.7056 11.5424 21.8611 11.8027 21.974 11.9996C21.8611 12.1966 21.7056 12.4568 21.5089 12.7613C21.0456 13.4788 20.3592 14.4331 19.4678 15.3841C17.6684 17.3033 15.1398 19.0996 11.9993 19.0996C8.85882 19.0996 6.33022 17.3033 4.53092 15.3841C3.63943 14.4331 2.9531 13.4788 2.48974 12.7613C2.29305 12.4568 2.1376 12.1966 2.02467 11.9996C2.1376 11.8027 2.29305 11.5424 2.48974 11.2379C2.9531 10.5204 3.63943 9.56607 4.53092 8.61516Z" fill="#4D5A74"/>
</svg>
