<svg width="512" height="512" fill="currentColor" viewBox="0 0 128 128" enable-background="new 0 0 128 128" xmlns="http://www.w3.org/2000/svg"><path d="m64 0c-35.289 0-64 28.711-64 64s28.711 64 64 64 64-28.711 64-64-28.711-64-64-64zm0 120c-30.879 0-56-25.121-56-56s25.121-56 56-56 56 25.121 56 56-25.121 56-56 56zm28-56c0 2.211-1.791 4-4 4h-38.344l13.172 13.172c1.563 1.563 1.563 4.094 0 5.656-.781.781-1.805 1.172-2.828 1.172s-2.047-.391-2.828-1.172l-20-20c-1.563-1.563-1.563-4.094 0-5.656l20-20c1.563-1.563 4.094-1.563 5.656 0s1.563 4.094 0 5.656l-13.172 13.172h38.344c2.209 0 4 1.789 4 4z"></path></svg>
