<svg width="20" height="20" viewBox="0 0 20 20" fill="none" xmlns="http://www.w3.org/2000/svg">
<path d="M12.335 4.665a2.333 2.333 0 1 1-4.667 0 2.333 2.333 0 0 1 4.667 0Zm1 0a3.333 3.333 0 1 1-6.667 0 3.333 3.333 0 0 1 6.667 0Zm2.334 10c0 .787-.159 1.303-.375 1.654-.213.345-.529.61-.986.814-.982.44-2.435.532-4.305.532-1.871 0-3.324-.092-4.306-.532-.457-.204-.773-.469-.986-.814-.216-.351-.375-.867-.375-1.654 0-1.53.601-2.558 1.539-3.237.98-.71 2.417-1.096 4.128-1.096 1.71 0 3.147.386 4.127 1.096.938.679 1.54 1.706 1.54 3.237Zm1 0c0 3.682-2.985 4-6.666 4-3.682 0-6.667-.318-6.667-4 0-3.681 2.985-5.333 6.667-5.333 3.681 0 6.666 1.651 6.666 5.333Z" fill-rule="evenodd" clip-rule="evenodd"/>
</svg>
