<svg width="24" height="24" fill="currentColor" viewBox="0 0 24 24" xmlns="http://www.w3.org/2000/svg"><path d="m29.55 6.509c-1.73-2.302-3.759-3.483-6.031-3.509h-.076c-3.29 0-6.124 2.469-7.443 3.84-1.32-1.371-4.153-3.84-7.444-3.84h-.075c-2.273.026-4.3 1.207-6.059 3.549a8.265 8.265 0 0 0 1.057 10.522l11.821 11.641a1 1 0 0 0 1.4 0l11.82-11.641a8.278 8.278 0 0 0 1.03-10.562zm-2.432 9.137-11.118 10.954-11.118-10.954a6.254 6.254 0 0 1 -.832-7.936c1.335-1.777 2.831-2.689 4.45-2.71h.058c3.48 0 6.627 3.924 6.658 3.964a1.037 1.037 0 0 0 1.57 0c.032-.04 3.2-4.052 6.716-3.964a5.723 5.723 0 0 1 4.421 2.67 6.265 6.265 0 0 1 -.805 7.976z"></path></svg>
