<svg width="70" height="70" viewBox="0 0 70 70" fill="none" xmlns="http://www.w3.org/2000/svg">
<path d="M13.2 16.2C13.2 8.9 19 3 26.1 3S39 8.9 39 16.2c0 7.3-5.8 13.1-12.9 13.1s-12.9-5.9-12.9-13.1zM26.1 0c-8.8 0-15.9 7.2-15.9 16.2s7.1 16.2 15.9 16.2S42 25.1 42 16.2 34.9 0 26.1 0zm-9.6 46.5c6.3-1 12.8-1 19.2 0l.7.1c7.4 1.2 12.9 7.7 12.9 15.4 0 2.8-2.2 5.1-5 5.1H7.9c-2.7 0-5-2.3-5-5.1 0-7.6 5.4-14.2 12.9-15.4l.7-.1zm19.7-3c-6.7-1.1-13.4-1.1-20.1 0l-.7.1C6.5 45 0 52.8 0 61.9 0 66.4 3.5 70 7.9 70h36.4c4.4 0 7.9-3.6 7.9-8.1 0-9.1-6.5-16.9-15.3-18.3l-.7-.1zM43.9 0c-.8 0-1.5.7-1.5 1.5S43.1 3 43.9 3C51 3 56.8 8.9 56.8 16.2c0 7.3-5.8 13.1-12.9 13.1-.8 0-1.5.7-1.5 1.5s.7 1.5 1.5 1.5c8.8 0 15.9-7.2 15.9-16.2S52.6 0 43.9 0zM49 43.5c-.8 0-1.5.7-1.5 1.5s.7 1.5 1.5 1.5h4c.4 0 .8 0 1.2.1C61.6 47.8 67 54.3 67 61.9c0 2.8-2.2 5.1-5 5.1h-8.4c-.8 0-1.5.7-1.5 1.5s.7 1.5 1.5 1.5H62c4.4 0 7.9-3.6 7.9-8.1 0-9.1-6.5-16.9-15.3-18.3-.6-.1-1.1-.1-1.7-.1H49z" fill-rule="evenodd" clip-rule="evenodd"/>
</svg>