<svg width="78" height="78" viewBox="0 0 78 78" fill="none" xmlns="http://www.w3.org/2000/svg">
<path d="M18.2 3c-1.8 0-3.6.7-4.8 2-1.3 1.3-2 3-2 4.8V75h55.3V9.8c0-1.8-.7-3.6-2-4.8-1.3-1.3-3-2-4.8-2H18.2zm51.5 72V9.8c0-2.6-1-5.1-2.9-7C64.9 1 62.4 0 59.8 0H18.2c-2.6 0-5.1 1-7 2.9-1.8 1.8-2.9 4.3-2.9 7V75H1.5c-.8 0-1.5.7-1.5 1.5S.7 78 1.5 78h75c.8 0 1.5-.7 1.5-1.5s-.7-1.5-1.5-1.5h-6.8zM25 22.3c0-.8.7-1.5 1.5-1.5h4.2c.8 0 1.5.7 1.5 1.5s-.7 1.5-1.5 1.5h-4.2c-.8 0-1.5-.6-1.5-1.5zm20.8 0c0-.8.7-1.5 1.5-1.5h4.2c.8 0 1.5.7 1.5 1.5s-.7 1.5-1.5 1.5h-4.2c-.8 0-1.5-.6-1.5-1.5zM25 39c0-.8.7-1.5 1.5-1.5h4.2c.8 0 1.5.7 1.5 1.5s-.7 1.5-1.5 1.5h-4.2c-.8 0-1.5-.7-1.5-1.5zm20.8 0c0-.8.7-1.5 1.5-1.5h4.2c.8 0 1.5.7 1.5 1.5s-.7 1.5-1.5 1.5h-4.2c-.8 0-1.5-.7-1.5-1.5zM25 55.7c0-.8.7-1.5 1.5-1.5h4.2c.8 0 1.5.7 1.5 1.5s-.7 1.5-1.5 1.5h-4.2c-.8 0-1.5-.7-1.5-1.5zm20.8 0c0-.8.7-1.5 1.5-1.5h4.2c.8 0 1.5.7 1.5 1.5s-.7 1.5-1.5 1.5h-4.2c-.8 0-1.5-.7-1.5-1.5z" fill-rule="evenodd" clip-rule="evenodd"/>
</svg>