<svg width="84" height="70" viewBox="0 0 84 70" fill="none" xmlns="http://www.w3.org/2000/svg">
<path d="M34.9 0c-9.4 0-18 2-24.2 4.8-3.2 1.5-5.8 3.1-7.6 4.9C1.2 11.5 0 13.6 0 15.9v14.4c0 2.2 1.3 4.2 3.1 6 1.8 1.8 4.4 3.5 7.6 4.9 1.1.5 2.4 1 3.7 1.5v11.5c0 2.2 1.3 4.2 3.1 6 1.8 1.8 4.4 3.5 7.6 4.9 6.2 2.9 14.8 5 24.2 5 9.4 0 18-2.1 24.2-5 3.1-1.5 5.7-3.1 7.6-4.9 1.8-1.8 3.1-3.8 3.1-6V39.7c0-2.5-1.6-4.7-3.8-6.7-2.3-2-5.5-3.8-9.3-5.3-.4-.2-.9-.1-1.2.1v-12c0-2.2-1.2-4.3-3.1-6.1-1.8-1.8-4.5-3.5-7.6-4.9C52.8 2 44.3 0 34.9 0zm31.8 21.9c-1.9 1.9-4.5 3.5-7.6 5-6.2 2.8-14.8 4.8-24.2 4.8s-18-2-24.2-4.8C7.6 25.5 5 23.8 3.1 22l-.1-.1v8.3c0 1 .6 2.3 2.2 3.8 1.5 1.5 3.8 3 6.7 4.4 5.8 2.7 13.9 4.7 23 4.7s17.1-2 23-4.7c2.9-1.4 5.2-2.9 6.7-4.4 1.6-1.5 2.2-2.8 2.2-3.8v-8.3zM3 15.9c0-1.1.6-2.4 2.2-4 1.5-1.5 3.8-3 6.7-4.3C17.7 4.9 25.8 3 34.9 3s17.1 1.9 23 4.6c2.9 1.3 5.2 2.8 6.7 4.3s2.2 2.9 2.2 4-.6 2.4-2.2 3.9c-1.5 1.5-3.8 3-6.7 4.3-5.8 2.6-13.9 4.5-23 4.5s-17.1-1.9-23-4.5c-2.9-1.3-5.2-2.8-6.7-4.3C3.6 18.3 3 16.9 3 15.9zm63.6 20.3c1.7-1.7 3-3.6 3.1-5.7.1 0 .1.1.2.1 3.6 1.4 6.4 3 8.4 4.7 2 1.7 2.8 3.3 2.8 4.5 0 1.1-.6 2.4-2.2 3.9-1.5 1.5-3.8 3-6.7 4.3-5.8 2.6-13.9 4.5-23 4.5-7.4 0-14.2-1.3-19.6-3.2-4.1-1.4-7.3-3.2-9.4-5 4.5 1.1 9.4 1.7 14.7 1.7 9.4 0 18-2.1 24.2-5 3.1-1.4 5.7-3 7.5-4.8zM81 45.8s-.1 0 0 0c-1.9 1.9-4.5 3.5-7.7 5-6.2 2.8-14.8 4.8-24.2 4.8-7.7 0-14.8-1.3-20.6-3.3-4.8-1.7-8.7-3.9-11.3-6.4v8.3c0 1 .6 2.3 2.2 3.8 1.5 1.5 3.8 3 6.7 4.4 5.9 2.6 14 4.6 23 4.6s17.1-2 23-4.7c2.9-1.4 5.2-2.9 6.7-4.4 1.6-1.5 2.2-2.8 2.2-3.8v-8.3z" fill-rule="evenodd" clip-rule="evenodd"/>
</svg>
