<svg width="70" height="70" viewBox="0 0 70 70" fill="none" xmlns="http://www.w3.org/2000/svg">
<path d="M17.004 10.352c0-4.02 3.317-7.352 7.5-7.352h21c4.182 0 7.5 3.332 7.5 7.352v3.902h-36v-3.902ZM45.504 0c5.799 0 10.5 4.635 10.5 10.352v4.437H57.5c6.904 0 12.5 5.596 12.5 12.5v30.21C70 64.404 64.404 70 57.5 70h-45C5.596 70 0 64.404 0 57.5V27.29c0-6.904 5.596-12.5 12.5-12.5h1.504v-4.437c0-5.717 4.7-10.352 10.5-10.352h21ZM12.5 17.789h45a9.5 9.5 0 0 1 9.5 9.5v30.21a9.5 9.5 0 0 1-9.5 9.5h-45A9.5 9.5 0 0 1 3 57.5V27.29a9.5 9.5 0 0 1 9.5-9.5Z" fill-rule="evenodd" clip-rule="evenodd"/>
</svg>