<svg width="72" height="78" viewBox="0 0 72 78" fill="none" xmlns="http://www.w3.org/2000/svg">
<path d="M70.4 11.7c-1.4-2-3.5-3.3-5.8-3.7L19.8.1c-1.2-.2-2.4-.2-3.5.1-1.2.3-2.3.8-3.2 1.4-1 .7-1.8 1.5-2.4 2.5-.6 1-1.1 2.1-1.3 3.3l-9.2 52c-.4 2.4.1 4.8 1.5 6.8s3.5 3.3 5.8 3.7l44.7 7.9c.5.1 1 .1 1.6.1.7 0 1.3-.1 2-.2 1.2-.3 2.3-.7 3.2-1.4 1-.7 1.8-1.5 2.4-2.5.6-1 1.1-2.1 1.3-3.3l9.2-52c.4-2.4-.2-4.8-1.5-6.8zM68.9 18l-9.2 52c-.1.8-.4 1.5-.9 2.2-.4.7-1 1.2-1.6 1.7-.7.5-1.4.8-2.2 1-.8.2-1.6.2-2.4.1L8 67c-1.6-.3-3-1.2-3.9-2.5-.9-1.3-1.3-2.9-1-4.5l9.2-52c.1-.8.4-1.5.9-2.2.4-.7 1-1.2 1.6-1.7.7-.5 1.4-.8 2.2-1 .4-.1.8-.1 1.2-.1.4 0 .7 0 1.1.1L64 11c1.6.3 3 1.2 3.9 2.5 1 1.3 1.3 2.9 1 4.5z"/>
<path d="M38 49.3 19.4 46c-.8-.1-1.6.4-1.7 1.2-.1.8.4 1.6 1.2 1.7l18.6 3.3h.3c.7 0 1.3-.5 1.5-1.2.1-.7-.5-1.5-1.3-1.7zM54.4 21.6l-29.8-5.2c-.8-.1-1.6.4-1.7 1.2s.4 1.6 1.2 1.7l29.8 5.2h.3c.7 0 1.3-.5 1.5-1.2.1-.8-.5-1.6-1.3-1.7zM51.8 36.4 22 31.2c-.8-.1-1.6.4-1.7 1.2-.1.8.4 1.6 1.2 1.7l29.8 5.2h.3c.7 0 1.3-.5 1.5-1.2.1-.8-.5-1.5-1.3-1.7z"/>
</svg>