<svg xmlns="http://www.w3.org/2000/svg" xml:space="preserve" style="enable-background:new 0 0 512.009 512.009" viewBox="0 0 512.009 512.009"><path d="m496.921 192.963-4.505 2.048 19.38-96.893c1.167-5.781-2.583-11.396-8.375-12.552-5.479-1.208-11.375 2.563-12.542 8.365l-14.667 73.328c-6.211-3.191-11.122-8.294-16.75-14.436-10.125-11.051-22.729-24.801-46.979-24.801s-36.833 13.75-46.958 24.801c-9.125 9.979-16.354 17.863-31.188 17.863-14.854 0-22.063-7.884-31.208-17.863-10.125-11.051-22.729-24.801-46.979-24.801-24.229 0-36.833 13.75-46.938 24.79-9.167 9.99-16.396 17.874-31.25 17.874-14.875 0-22.125-7.884-31.292-17.874-10.125-11.04-22.75-24.79-47.021-24.79s-36.875 13.74-47 24.79c-5.658 6.159-10.592 11.283-16.849 14.474L21.129 93.93c-1.167-5.802-7.063-9.583-12.542-8.365C2.795 86.721-.955 92.336.212 98.117l19.38 96.893-4.505-2.048c-5.354-2.417-11.667-.063-14.125 5.292-2.438 5.365-.063 11.688 5.292 14.125l18.493 8.406 34.249 171.233-31.409 14.277c-5.354 2.438-7.729 8.76-5.292 14.125a10.678 10.678 0 0 0 9.708 6.25c1.479 0 2.979-.302 4.417-.958l31.785-14.448c7.915 9.46 19.738 15.406 32.694 15.406h310.208c12.956 0 24.779-5.947 32.694-15.406l31.785 14.448c1.438.656 2.938.958 4.417.958 4.042 0 7.917-2.323 9.708-6.25 2.438-5.365.063-11.688-5.292-14.125l-31.409-14.277 34.249-171.233 18.493-8.406c5.354-2.438 7.729-8.76 5.292-14.125-2.435-5.353-8.748-7.708-14.123-5.291zM48.678 231.664l181.552 82.523-151.292 68.768-30.26-151.291zm362.431 173.675H100.9c-4.25 0-8.124-1.495-11.501-3.707l166.605-75.73 166.605 75.73c-3.377 2.213-7.25 3.707-11.5 3.707zm21.962-22.384-151.292-68.768 181.552-82.523-30.26 151.291zm35.415-177.068L256.004 302.47 43.523 205.887l-3.454-17.27c12.586-4.647 20.918-13.353 28.29-21.389 9.167-9.99 16.417-17.875 31.292-17.875 14.896 0 22.146 7.896 31.313 17.885 10.125 11.04 22.75 24.779 47 24.779s36.854-13.749 46.979-24.799c9.146-9.979 16.354-17.865 31.208-17.865s22.083 7.885 31.25 17.875c10.104 11.04 22.708 24.789 46.938 24.789 24.229 0 36.813-13.749 46.938-24.789 9.146-9.99 16.354-17.875 31.208-17.875s22.083 7.885 31.25 17.875c7.349 8.036 15.664 16.736 28.208 21.383l-3.457 17.276z"/></svg>
