<svg xmlns="http://www.w3.org/2000/svg" viewBox="0 0 24 24" width="24" height="24"><path d="M8.11 2.11a5.5 5.5 0 1 1 7.78 7.78 5.5 5.5 0 0 1-7.78-7.78ZM12 3.5a2.5 2.5 0 1 0 0 5 2.5 2.5 0 0 0 0-5ZM5.658 13.329a1.5 1.5 0 0 1 2.013-.67c1.05.525 2.618.837 4.292.841a1.53 1.53 0 0 1 .074 0c1.674-.004 3.24-.316 4.292-.841a1.5 1.5 0 0 1 1.342 2.682c-1.005.503-2.195.83-3.43 1.005l3.911 4.694a1.5 1.5 0 0 1-2.305 1.92L12 18.343 8.152 22.96a1.5 1.5 0 1 1-2.304-1.92l3.911-4.694c-1.235-.175-2.426-.502-3.43-1.005a1.5 1.5 0 0 1-.67-2.012Z" clip-rule="evenodd"></path></svg>
