<svg width="20" height="20" viewBox="0 0 20 20" fill="none" xmlns="http://www.w3.org/2000/svg">
<path d="M9.99967 14.2621C10.9559 14.2621 11.7665 13.9296 12.4315 13.2646C13.0965 12.5996 13.429 11.7889 13.429 10.8327C13.429 9.87643 13.0965 9.06581 12.4315 8.40081C11.7665 7.73581 10.9559 7.40331 9.99967 7.40331C9.04342 7.40331 8.2328 7.73581 7.5678 8.40081C6.9028 9.06581 6.5703 9.87643 6.5703 10.8327C6.5703 11.7889 6.9028 12.5996 7.5678 13.2646C8.2328 13.9296 9.04342 14.2621 9.99967 14.2621ZM9.99967 13.0123C9.38426 13.0123 8.86717 12.8028 8.44842 12.3839C8.02954 11.9652 7.82009 11.4481 7.82009 10.8327C7.82009 10.2173 8.02954 9.70018 8.44842 9.28143C8.86717 8.86254 9.38426 8.6531 9.99967 8.6531C10.6151 8.6531 11.1322 8.86254 11.5509 9.28143C11.9698 9.70018 12.1793 10.2173 12.1793 10.8327C12.1793 11.4481 11.9698 11.9652 11.5509 12.3839C11.1322 12.8028 10.6151 13.0123 9.99967 13.0123ZM3.58947 17.0827C3.16849 17.0827 2.81217 16.9368 2.52051 16.6452C2.22884 16.3535 2.08301 15.9972 2.08301 15.5762V6.08914C2.08301 5.66817 2.22884 5.31185 2.52051 5.02018C2.81217 4.72852 3.16849 4.58268 3.58947 4.58268H6.13426L7.67592 2.91602H12.3234L13.8651 4.58268H16.4099C16.8309 4.58268 17.1872 4.72852 17.4788 5.02018C17.7705 5.31185 17.9163 5.66817 17.9163 6.08914V15.5762C17.9163 15.9972 17.7705 16.3535 17.4788 16.6452C17.1872 16.9368 16.8309 17.0827 16.4099 17.0827H3.58947ZM3.58947 15.8327H16.4099C16.4847 15.8327 16.5462 15.8087 16.5943 15.7606C16.6423 15.7125 16.6663 15.6511 16.6663 15.5762V6.08914C16.6663 6.01428 16.6423 5.95282 16.5943 5.90477C16.5462 5.85671 16.4847 5.83268 16.4099 5.83268H13.3074L11.7784 4.16602H8.22092L6.69197 5.83268H3.58947C3.5146 5.83268 3.45315 5.85671 3.40509 5.90477C3.35704 5.95282 3.33301 6.01428 3.33301 6.08914V15.5762C3.33301 15.6511 3.35704 15.7125 3.40509 15.7606C3.45315 15.8087 3.5146 15.8327 3.58947 15.8327Z" fill="white"/>
</svg>
