<svg width="24" height="24" viewBox="0 0 24 24" fill="none" xmlns="http://www.w3.org/2000/svg">
<path fill-rule="evenodd" clip-rule="evenodd" d="M11.9996 6.09961C9.8457 6.09961 8.09961 7.8457 8.09961 9.99961C8.09961 12.1535 9.8457 13.8996 11.9996 13.8996C14.1535 13.8996 15.8996 12.1535 15.8996 9.99961C15.8996 7.8457 14.1535 6.09961 11.9996 6.09961ZM9.89961 9.99961C9.89961 8.83981 10.8398 7.89961 11.9996 7.89961C13.1594 7.89961 14.0996 8.83981 14.0996 9.99961C14.0996 11.1594 13.1594 12.0996 11.9996 12.0996C10.8398 12.0996 9.89961 11.1594 9.89961 9.99961Z" fill="#7C8AA6"/>
<path fill-rule="evenodd" clip-rule="evenodd" d="M11.9996 0.0996094C9.37397 0.0996094 6.85586 1.14264 4.99925 2.99925C3.14264 4.85586 2.09961 7.37397 2.09961 9.99961C2.09961 13.8614 4.56045 17.3308 6.84625 19.7436C8.00756 20.9694 9.16581 21.9665 10.0327 22.6568C10.4669 23.0025 10.8298 23.2728 11.0859 23.4577C11.2141 23.5503 11.3156 23.6216 11.3861 23.6704C11.4214 23.6948 11.4495 23.7141 11.4688 23.7271L11.4899 23.7414L11.491 23.7421L11.4975 23.7465L11.5001 23.7482C11.8021 23.9496 12.1962 23.9502 12.4988 23.7485L12.5004 23.7474L12.5025 23.746L12.5082 23.7421L12.5093 23.7414L12.5311 23.7267C12.5503 23.7136 12.5778 23.6948 12.6131 23.6704C12.6836 23.6216 12.7852 23.5503 12.9133 23.4577C13.1694 23.2728 13.5323 23.0025 13.9665 22.6568C14.8334 21.9665 15.9917 20.9694 17.153 19.7436C19.4388 17.3308 21.8996 13.8614 21.8996 9.99961C21.8996 7.37397 20.8566 4.85586 19 2.99925C17.1434 1.14264 14.6253 0.0996094 11.9996 0.0996094ZM12.8452 21.2487C12.5108 21.515 12.2226 21.7327 11.9996 21.8964C11.7766 21.7327 11.4884 21.515 11.154 21.2487C10.3334 20.5953 9.24166 19.6548 8.15297 18.5056C5.93878 16.1684 3.89961 13.1379 3.89961 9.99961C3.89961 7.85136 4.753 5.79109 6.27204 4.27204C7.79109 2.753 9.85136 1.89961 11.9996 1.89961C14.1479 1.89961 16.2081 2.753 17.7272 4.27204C19.2462 5.79109 20.0996 7.85136 20.0996 9.99961C20.0996 13.1379 18.0604 16.1684 15.8463 18.5056C14.7576 19.6548 13.6658 20.5953 12.8452 21.2487Z" fill="#7C8AA6"/>
</svg>
