<svg width="800" height="800" viewBox="0 0 800 800" fill="none" xmlns="http://www.w3.org/2000/svg">
<path fill-rule="evenodd" clip-rule="evenodd" d="M241.277 101.478C188.399 72.7226 125 110.648 125 167.763V632.236C125 689.35 188.399 727.276 241.277 698.52L253.046 720.161L241.277 698.52L668.343 466.283C721.664 437.287 721.665 362.711 668.343 333.715L680.287 311.752L668.343 333.715L241.277 101.478L252.543 80.76L241.277 101.478ZM75 167.763C75 70.9288 180.558 11.5439 265.164 57.5526L692.23 289.789L681.247 309.986L692.23 289.789C780.369 337.72 780.369 462.278 692.23 510.208L680.287 488.246L692.23 510.209L265.164 742.445C180.558 788.456 75 729.069 75 632.236V167.763Z" fill="#1C274C"/>
</svg>
