<svg width="24" height="24" viewBox="0 0 24 24" fill="none" xmlns="http://www.w3.org/2000/svg">
<path d="M12.0005 2.61523C11.5035 2.61523 11.1005 3.01818 11.1005 3.51523V11.1005H3.51523C3.01818 11.1005 2.61523 11.5035 2.61523 12.0005C2.61523 12.4976 3.01818 12.9005 3.51523 12.9005H11.1005V20.4858C11.1005 20.9829 11.5035 21.3858 12.0005 21.3858C12.4976 21.3858 12.9005 20.9829 12.9005 20.4858V12.9005H20.4858C20.9829 12.9005 21.3858 12.4976 21.3858 12.0005C21.3858 11.5035 20.9829 11.1005 20.4858 11.1005H12.9005V3.51523C12.9005 3.01818 12.4976 2.61523 12.0005 2.61523Z" fill="#4D7CFF"/>
</svg>
