<svg xmlns="http://www.w3.org/2000/svg" viewBox="0 0 24 24" width="24" height="24"><path d="M19.894 6.79a1.894 1.894 0 1 0 0-3.79 1.894 1.894 0 0 0 0 3.79ZM14.802 13.36H6.514v-3.274h8.288c.484 0 .82.084.989.231.169.147.274.42.274.819v1.175c0 .42-.105.693-.274.84-.169.147-.505.209-.99.209ZM15.37 7H3v13.999h3.514v-4.555h6.477L16.065 21H20l-3.388-4.576c1.249-.185 1.81-.567 2.273-1.197.462-.63.694-1.636.694-2.98v-1.05c0-.797-.085-1.427-.232-1.91a3.183 3.183 0 0 0-.758-1.28 3.427 3.427 0 0 0-1.304-.776C16.779 7.083 16.148 7 15.37 7Z"></path></svg>
