<svg width="24" height="24" viewBox="0 0 24 24" fill="none" xmlns="http://www.w3.org/2000/svg">
<path fill-rule="evenodd" clip-rule="evenodd" d="M10.9996 2.09961C6.08427 2.09961 2.09961 6.08427 2.09961 10.9996C2.09961 15.9149 6.08427 19.8996 10.9996 19.8996C13.1328 19.8996 15.0915 19.1486 16.6244 17.8972L20.3632 21.636C20.7147 21.9875 21.2845 21.9875 21.636 21.636C21.9875 21.2845 21.9875 20.7147 21.636 20.3632L17.8972 16.6244C19.1486 15.0915 19.8996 13.1328 19.8996 10.9996C19.8996 6.08427 15.9149 2.09961 10.9996 2.09961ZM3.89961 10.9996C3.89961 7.07839 7.07839 3.89961 10.9996 3.89961C14.9208 3.89961 18.0996 7.07839 18.0996 10.9996C18.0996 12.9155 17.3412 14.6535 16.1074 15.9312C16.0745 15.9561 16.043 15.9834 16.0132 16.0132C15.9834 16.043 15.9561 16.0745 15.9311 16.1074C14.6535 17.3412 12.9155 18.0996 10.9996 18.0996C7.07839 18.0996 3.89961 14.9208 3.89961 10.9996Z" fill="#4D5A74"/>
</svg>
