<svg width="20" height="20" viewBox="0 0 20 20" fill="none" xmlns="http://www.w3.org/2000/svg">
<path fill-rule="evenodd" clip-rule="evenodd" d="M15.2941 9.14706C15.2941 12.542 12.542 15.2941 9.14706 15.2941C5.75213 15.2941 3 12.542 3 9.14706C3 5.75213 5.75213 3 9.14706 3C12.542 3 15.2941 5.75213 15.2941 9.14706ZM13.2751 14.9822C12.1092 15.8085 10.6848 16.2941 9.14706 16.2941C5.19985 16.2941 2 13.0943 2 9.14706C2 5.19985 5.19985 2 9.14706 2C13.0943 2 16.2941 5.19985 16.2941 9.14706C16.2941 11.1952 15.4326 13.0421 14.0522 14.3451L17.3536 17.6465C17.5489 17.8417 17.5489 18.1583 17.3536 18.3536C17.1583 18.5489 16.8417 18.5489 16.6465 18.3536L13.2751 14.9822Z" fill="#4D5A74"/>
</svg>
