<svg width="24" height="24" viewBox="0 0 24 24" fill="none" xmlns="http://www.w3.org/2000/svg">
<path d="M12.0671 7.33203C9.46706 7.33203 7.40039 9.3987 7.40039 11.9987C7.40039 14.5987 9.46706 16.6654 12.0671 16.6654C14.6671 16.6654 16.7337 14.5987 16.7337 11.9987C16.7337 9.3987 14.6671 7.33203 12.0671 7.33203ZM12.0671 15.332C10.2004 15.332 8.73372 13.8654 8.73372 11.9987C8.73372 10.132 10.2004 8.66536 12.0671 8.66536C13.9337 8.66536 15.4004 10.132 15.4004 11.9987C15.4004 13.8654 13.9337 15.332 12.0671 15.332Z" fill="#4D5A74"/>
<path d="M21.8673 9.7987L20.0007 9.1987L19.6007 8.1987L20.534 6.46536C20.734 6.06536 20.6673 5.53203 20.334 5.1987L18.734 3.5987C18.4007 3.26536 17.8673 3.1987 17.4673 3.3987L15.734 4.33203L14.734 3.93203L14.134 2.06536C14.0007 1.66536 13.6007 1.33203 13.134 1.33203H10.8673C10.4007 1.33203 10.0007 1.66536 9.93398 2.13203L9.33398 3.9987C8.93398 4.06536 8.60065 4.1987 8.26732 4.3987L6.53398 3.46536C6.13398 3.26536 5.60065 3.33203 5.26732 3.66536L3.66732 5.26536C3.33398 5.5987 3.26732 6.13203 3.46732 6.53203L4.33398 8.1987C4.20065 8.53203 4.06732 8.93203 3.93398 9.26536L2.06732 9.86536C1.66732 9.9987 1.33398 10.3987 1.33398 10.8654V13.132C1.33398 13.5987 1.66732 13.9987 2.13398 14.132L4.00065 14.732L4.40065 15.732L3.46732 17.4654C3.26732 17.8654 3.33398 18.3987 3.66732 18.732L5.26732 20.332C5.60065 20.6654 6.13398 20.732 6.53398 20.532L8.26732 19.5987L9.26732 19.9987L9.86732 21.932C10.0007 22.332 10.4007 22.6654 10.8673 22.6654H13.134C13.6007 22.6654 14.0007 22.332 14.134 21.932L14.734 19.9987L15.734 19.5987L17.4673 20.532C17.8673 20.732 18.4007 20.6654 18.734 20.332L20.334 18.732C20.6673 18.3987 20.734 17.8654 20.534 17.4654L19.6007 15.732L20.0007 14.732L21.934 14.132C22.334 13.9987 22.6673 13.5987 22.6673 13.132V10.8654C22.6673 10.3987 22.334 9.93203 21.8673 9.7987ZM21.334 12.932L18.934 13.6654L18.8673 13.9987L18.2673 15.3987L18.0673 15.732L19.2673 17.932L17.934 19.2654L15.734 18.0654L15.4007 18.2654C14.934 18.532 14.4673 18.732 14.0007 18.8654L13.6673 18.932L12.934 21.332H11.0673L10.334 18.932L10.0007 18.8654L8.60065 18.2654L8.26732 18.0654L6.06732 19.2654L4.73398 17.932L5.93398 15.732L5.73398 15.3987C5.46732 14.932 5.26732 14.4654 5.13398 13.9987L5.06732 13.6654L2.66732 12.932V11.0654L4.93398 10.3987L5.06732 10.0654C5.20065 9.53203 5.40065 9.06536 5.66732 8.5987L5.86732 8.26536L4.73398 6.06536L6.06732 4.73203L8.20065 5.93203L8.53398 5.73203C9.00065 5.46536 9.46732 5.26536 10.0007 5.13203L10.334 4.9987L11.0673 2.66536H12.934L13.6673 4.9987L14.0007 5.13203C14.4673 5.26536 14.934 5.46536 15.4007 5.73203L15.734 5.93203L17.934 4.73203L19.2673 6.06536L18.0673 8.26536L18.2673 8.5987C18.534 9.06536 18.734 9.53203 18.8673 9.9987L18.934 10.332L21.334 11.0654V12.932Z" fill="#4D5A74"/>
</svg>
