<svg width="40.124px" height="40.124px" enable-background="new 0 0 512 512" version="1.1" viewBox="0 0 512 512" xml:space="preserve" xmlns="http://www.w3.org/2000/svg"><circle cx="386" cy="210" r="20"></circle><path d="m432 40h-26v-20c0-11.046-8.954-20-20-20s-20 8.954-20 20v20h-91v-20c0-11.046-8.954-20-20-20s-20 8.954-20 20v20h-90v-20c0-11.046-8.954-20-20-20s-20 8.954-20 20v20h-25c-44.112 0-80 35.888-80 80v312c0 44.112 35.888 80 80 80h153c11.046 0 20-8.954 20-20s-8.954-20-20-20h-153c-22.056 0-40-17.944-40-40v-312c0-22.056 17.944-40 40-40h25v20c0 11.046 8.954 20 20 20s20-8.954 20-20v-20h90v20c0 11.046 8.954 20 20 20s20-8.954 20-20v-20h91v20c0 11.046 8.954 20 20 20s20-8.954 20-20v-20h26c22.056 0 40 17.944 40 40v114c0 11.046 8.954 20 20 20s20-8.954 20-20v-114c0-44.112-35.888-80-80-80z"></path><path d="m391 270c-66.72 0-121 54.28-121 121s54.28 121 121 121 121-54.28 121-121-54.28-121-121-121zm0 202c-44.663 0-81-36.336-81-81s36.337-81 81-81 81 36.336 81 81-36.337 81-81 81z"></path><path d="m420 371h-9v-21c0-11.046-8.954-20-20-20s-20 8.954-20 20v41c0 11.046 8.954 20 20 20h29c11.046 0 20-8.954 20-20s-8.954-20-20-20z"></path><circle cx="299" cy="210" r="20"></circle><circle cx="212" cy="297" r="20"></circle><circle cx="125" cy="210" r="20"></circle><circle cx="125" cy="297" r="20"></circle><circle cx="125" cy="384" r="20"></circle><circle cx="212" cy="384" r="20"></circle><circle cx="212" cy="210" r="20"></circle></svg>
