<svg width="32" height="32" viewBox="0 0 32 32" fill="none" xmlns="http://www.w3.org/2000/svg">
<path fill-rule="evenodd" clip-rule="evenodd" d="M15.9992 1.4668C15.5424 1.4668 15.1253 1.72608 14.9231 2.13565L11.0821 9.91722L2.4923 11.1727C2.04043 11.2388 1.66521 11.5556 1.52436 11.99C1.38351 12.4244 1.50143 12.9011 1.82858 13.2198L8.0431 19.2727L6.57646 27.8239C6.49924 28.2742 6.68434 28.7292 7.05391 28.9977C7.42348 29.2661 7.91343 29.3015 8.31773 29.0889L15.9992 25.0493L23.6806 29.0889C24.0849 29.3015 24.5749 29.2661 24.9445 28.9977C25.314 28.7292 25.4991 28.2742 25.4219 27.8239L23.9553 19.2727L30.1698 13.2198C30.4969 12.9011 30.6149 12.4244 30.474 11.99C30.3332 11.5556 29.9579 11.2388 29.5061 11.1727L20.9163 9.91722L17.0752 2.13565C16.8731 1.72608 16.4559 1.4668 15.9992 1.4668ZM12.9552 11.5446L15.9992 5.3779L19.0431 11.5446C19.2178 11.8984 19.5552 12.1438 19.9456 12.2008L26.7544 13.1961L21.8286 17.9938C21.5455 18.2695 21.4163 18.6669 21.4831 19.0563L22.6454 25.8328L16.5577 22.6314C16.2081 22.4475 15.7903 22.4475 15.4406 22.6314L9.35301 25.8328L10.5153 19.0563C10.582 18.6669 10.4528 18.2695 10.1698 17.9938L5.24395 13.1961L12.0527 12.2008C12.4432 12.1438 12.7806 11.8984 12.9552 11.5446Z" fill="#4D7CFF"/>
</svg>
