<svg width="512" height="512" fill="currentColor" viewBox="0 0 512 512" xmlns="http://www.w3.org/2000/svg"><path d="M511.989,148.555c0-.107.007-.214.008-.322,0-.042,0-.083,0-.125h-.007a15.921,15.921,0,0,0-1.805-7.4L441.3,8.6A16,16,0,0,0,427.115,0H84.885A16,16,0,0,0,70.7,8.6L1.813,140.711a15.91,15.91,0,0,0-1.806,7.4H0c0,.042,0,.083,0,.125,0,.108.005.215.008.322a75.953,75.953,0,0,0,32.6,61.9V466a46.053,46.053,0,0,0,46,46H433.386a46.058,46.058,0,0,0,46-46V210.455A75.953,75.953,0,0,0,511.989,148.555Zm-32.15,3.167A43.994,43.994,0,0,1,392,148.108h-.016a16,16,0,0,0-.512-4.077L361.946,32h55.468ZM183.146,32H240V148.108A44,44,0,0,1,152.048,150ZM272,32h56.854l31.1,118A44,44,0,0,1,272,148.108ZM94.586,32h55.468L120.528,144.031a16,16,0,0,0-.512,4.077H120a43.994,43.994,0,0,1-87.839,3.614ZM380.331,480H298.96V306.347h81.371Zm67.054-14a14.058,14.058,0,0,1-14,14H412.331V290.347a16,16,0,0,0-16-16H282.96a16,16,0,0,0-16,16V480H78.615a14.016,14.016,0,0,1-14-14V223.253A75.917,75.917,0,0,0,136,194.673a75.869,75.869,0,0,0,120,0,75.869,75.869,0,0,0,120,0,75.917,75.917,0,0,0,71.385,28.58ZM215.215,274.347H115.67a16,16,0,0,0-16,16v99.545a16,16,0,0,0,16,16h99.545a16,16,0,0,0,16-16V290.347A16,16,0,0,0,215.215,274.347Zm-16,99.545H131.67V306.347h67.545Z"></path></svg>
