<svg width="24" height="24" viewBox="0 0 24 24" fill="none" xmlns="http://www.w3.org/2000/svg">
<path fill-rule="evenodd" clip-rule="evenodd" d="M9.99961 1.09961C9.23048 1.09961 8.49286 1.40514 7.949 1.949C7.40514 2.49285 7.09961 3.23048 7.09961 3.99961V5.09961H2.99961C2.50255 5.09961 2.09961 5.50255 2.09961 5.99961C2.09961 6.49667 2.50255 6.89961 2.99961 6.89961H4.09961V19.9996C4.09961 20.7687 4.40514 21.5064 4.949 22.0502C5.49285 22.5941 6.23048 22.8996 6.99961 22.8996H16.9996C17.7687 22.8996 18.5064 22.5941 19.0502 22.0502C19.5941 21.5064 19.8996 20.7687 19.8996 19.9996V6.89961H20.9996C21.4967 6.89961 21.8996 6.49667 21.8996 5.99961C21.8996 5.50255 21.4967 5.09961 20.9996 5.09961H16.8996V3.99961C16.8996 3.23048 16.5941 2.49285 16.0502 1.949C15.5064 1.40514 14.7687 1.09961 13.9996 1.09961H9.99961ZM9.22179 3.22179C9.42808 3.0155 9.70787 2.89961 9.99961 2.89961H13.9996C14.2913 2.89961 14.5711 3.0155 14.7774 3.22179C14.9837 3.42808 15.0996 3.70787 15.0996 3.99961V5.09961H8.89961V3.99961C8.89961 3.70787 9.0155 3.42808 9.22179 3.22179ZM5.89961 19.9996V6.89961H18.0996V19.9996C18.0996 20.2913 17.9837 20.5711 17.7774 20.7774C17.5711 20.9837 17.2913 21.0996 16.9996 21.0996H6.99961C6.70787 21.0996 6.42808 20.9837 6.22179 20.7774C6.0155 20.5711 5.89961 20.2913 5.89961 19.9996Z" fill="white"/>
</svg>
