<svg xmlns="http://www.w3.org/2000/svg" viewBox="0 0 24 24" width="24" height="24"><path d="M12.002 3.6c-1.944 0-3.483 1.515-3.483 3.338 0 1.823 1.539 3.337 3.483 3.337 1.945 0 3.484-1.514 3.484-3.337 0-1.823-1.54-3.338-3.484-3.338ZM7.32 6.938c0-2.526 2.118-4.538 4.683-4.538 2.566 0 4.684 2.012 4.684 4.538 0 2.526-2.118 4.537-4.684 4.537-2.565 0-4.683-2.01-4.683-4.537Zm7.374 7.883a16.531 16.531 0 0 0-5.381 0l-.208.034-.094-.57.094.57c-2.003.33-3.502 2.123-3.502 4.257 0 .73.568 1.288 1.228 1.288h10.344c.66 0 1.228-.558 1.228-1.288 0-2.134-1.498-3.927-3.501-4.257l.097-.592-.097.592-.208-.034Zm.195-1.184-.098.592.098-.592.208.034c2.61.43 4.506 2.748 4.506 5.44 0 1.357-1.069 2.49-2.428 2.49H6.83c-1.359 0-2.428-1.133-2.428-2.49 0-2.692 1.896-5.01 4.507-5.44l.208-.034.097.592-.097-.592a17.732 17.732 0 0 1 5.771 0Z"></path></svg>