<svg xmlns="http://www.w3.org/2000/svg" viewBox="0 0 24 24" width="24" height="24"><path d="M20.73 7.313c.127-.424 0-.735-.604-.735h-1.998c-.508 0-.74.269-.868.564 0 0-1.016 2.478-2.456 4.084-.464.467-.677.615-.93.615-.127 0-.31-.147-.31-.571V7.313c0-.509-.148-.735-.571-.735h-3.14c-.317 0-.509.235-.509.46 0 .48.72.592.794 1.947v2.942c0 .644-.116.761-.37.761-.678 0-2.325-2.486-3.303-5.333-.19-.553-.383-.776-.893-.776H3.575c-.571 0-.685.269-.685.564 0 .53.677 3.155 3.153 6.625 1.651 2.37 3.976 3.655 6.093 3.655 1.27 0 1.426-.285 1.426-.777v-1.792c0-.57.122-.685.523-.685.296 0 .804.15 1.99 1.291 1.354 1.354 1.578 1.962 2.338 1.962h1.998c.57 0 .855-.285.691-.848-.18-.56-.826-1.376-1.684-2.341-.467-.55-1.164-1.143-1.376-1.439-.297-.382-.21-.55 0-.89 0 .002 2.434-3.426 2.688-4.591Z"></path></svg>
