<svg width="24" height="24" viewBox="0 0 24 24" fill="none" xmlns="http://www.w3.org/2000/svg">
<circle cx="12" cy="12" r="10" fill="#4D5A74"/>
<path fill-rule="evenodd" clip-rule="evenodd" d="M14.4442 6.5591C14.8349 6.20105 15.3648 5.99994 15.9172 6C16.4697 6.00006 16.9995 6.2013 17.3901 6.55944C17.7807 6.91758 18.0001 7.40329 18 7.90972C17.9999 8.41615 17.7804 8.9018 17.3897 9.25986L10.1095 15.9344C9.91986 16.1077 9.68604 16.2363 9.4298 16.3078L7.05372 16.9683C6.91226 17.0072 6.76194 17.0104 6.6187 16.9774C6.47546 16.9444 6.34463 16.8764 6.24011 16.7808C6.13558 16.6851 6.06125 16.5653 6.02501 16.434C5.98877 16.3028 5.99196 16.165 6.03426 16.0352L6.03493 16.0332L6.75549 13.8571L6.75593 13.8558C6.83451 13.6209 6.97484 13.4072 7.16458 13.2337L14.4442 6.5591ZM15.2155 7.26631L7.9359 13.9409C7.87273 13.9986 7.82537 14.0702 7.79912 14.1484L7.22738 15.875L9.11236 15.351C9.1976 15.3273 9.27519 15.2847 9.33834 15.2271L16.6183 8.55272C16.8044 8.38218 16.909 8.1508 16.9091 7.90959C16.9091 7.66839 16.8046 7.43705 16.6186 7.26648C16.4325 7.0959 16.1802 7.00005 15.9171 7.00002C15.654 6.99999 15.4016 7.09583 15.2155 7.26631Z" fill="white"/>
</svg>
