<svg width="24" height="24" viewBox="0 0 24 24" fill="none" xmlns="http://www.w3.org/2000/svg">
<circle cx="12" cy="12" r="10" fill="#E73838"/>
<path d="M13.7803 7.12814C13.888 5.9866 12.9901 5 11.8435 5C10.6949 5 9.79635 5.98982 9.90711 7.13303L10.4202 12.4286H13.2803L13.7803 7.12814ZM11.8408 18.429C12.4721 18.429 12.9898 18.2396 13.3939 17.8608C13.798 17.4693 14 16.9958 14 16.4402C14 15.872 13.798 15.4048 13.3939 15.0386C12.9898 14.6724 12.4721 14.4893 11.8408 14.4893C11.2094 14.4893 10.698 14.6724 10.3066 15.0386C9.90248 15.4048 9.70045 15.872 9.70045 16.4402C9.70045 16.9958 9.90248 17.4693 10.3066 17.8608C10.7106 18.2396 11.222 18.429 11.8408 18.429Z" fill="#FFEAED"/>
</svg>
