<svg width="24" height="24" viewBox="0 0 24 24" fill="none" xmlns="http://www.w3.org/2000/svg">
<circle cx="12" cy="12" r="10" fill="#4D5A74"/>
<path d="M12.2333 11.6745V11.8548L12.3945 11.9354L14.4376 12.9569C14.5529 13.0146 14.5996 13.1547 14.542 13.27C14.4843 13.3852 14.3442 13.432 14.2289 13.3743L11.8956 12.2077C11.8165 12.1681 11.7666 12.0873 11.7666 11.999V8.49896C11.7666 8.37009 11.8711 8.26563 11.9999 8.26563C12.1288 8.26563 12.2333 8.37009 12.2333 8.49896V11.6745ZM5.93327 11.999C5.93327 8.64843 8.64941 5.93229 11.9999 5.93229C15.3505 5.93229 18.0666 8.64843 18.0666 11.999C18.0666 15.3495 15.3505 18.0656 11.9999 18.0656C8.64941 18.0656 5.93327 15.3495 5.93327 11.999ZM11.9999 6.39896C8.90714 6.39896 6.39993 8.90616 6.39993 11.999C6.39993 15.0918 8.90714 17.599 11.9999 17.599C15.0927 17.599 17.5999 15.0918 17.5999 11.999C17.5999 8.90616 15.0927 6.39896 11.9999 6.39896Z" fill="#FAFCFF" stroke="#FAFCFF" stroke-width="0.583333"/>
</svg>
