<svg width="24" height="24" viewBox="0 0 24 24" fill="none" xmlns="http://www.w3.org/2000/svg">
<circle cx="12" cy="12" r="10" fill="#249D57"/>
<path d="M10.3324 16.0338L9.23383 14.9352L9.22867 14.9404L9.22351 14.9455L10.3272 16.0493H10.3376L10.3272 13.8427H10.3376L16.7628 9.60337L10.3324 16.0338ZM10.3324 16.0338L10.3272 16.0389L10.3324 16.0441L10.3376 16.0389L10.3324 16.0338ZM9.22909 14.9305L6.76031 12.4617M9.22909 14.9305L7.85323 11.3686L6.76031 12.4617M9.22909 14.9305L9.22394 14.9356L9.21878 14.9408L6.74484 12.4669L6.75 12.4617M9.22909 14.9305L6.75 12.4617M6.76031 12.4617L6.75516 12.4669M6.76031 12.4617L6.75516 12.4566L6.75516 12.4669M7.85839 11.3635L10.3272 13.8323L7.85839 11.3635ZM7.85839 11.3635L7.85323 11.3583L7.85839 11.3532L7.85839 11.3635ZM6.75 12.4617L6.75516 12.4669M6.75 12.4617L6.75516 12.4669M6.73969 12.4617L6.74484 12.4566L-71.3878 -65.6658L6.73969 12.4617Z" fill="#E3FCEC" stroke="#E3FCEC" stroke-width="0.0145833"/>
</svg>
