<svg width="64" height="64" viewBox="0 0 64 64" fill="none" xmlns="http://www.w3.org/2000/svg">
<g clip-path="url(#clip0_5574_18392)">
<path fill-rule="evenodd" clip-rule="evenodd" d="M24.3784 58.3672C23.2627 59.5193 22.3275 60.2525 21.6138 60.782C20.9001 61.3115 20.4079 61.6373 19.9649 61.8934C19.5219 62.1494 19.1281 62.3356 18.8656 62.4752C18.6031 62.6149 18.4718 62.708 18.6632 62.9058C18.8547 63.1036 19.3688 63.4062 19.8664 63.5866C20.3641 63.767 20.8454 63.8252 21.4743 63.8601C22.1033 63.895 22.8799 63.9066 23.7276 63.9299C24.5753 63.9532 25.4941 63.9881 26.1613 64.0172C26.8285 64.0463 27.2441 64.0695 27.7199 63.9532C28.1958 63.8368 28.7317 63.5808 29.0763 63.4004C29.4208 63.22 29.574 63.1153 29.5685 62.8476C29.563 62.5799 29.3989 62.1494 29.1528 61.7595C28.9067 61.3696 28.5786 61.0205 28.2887 60.7645C27.9989 60.5085 27.7473 60.3455 27.5285 60.2234C27.3098 60.1012 27.1238 60.0197 26.7929 59.8655C26.4621 59.7113 25.9863 59.4844 24.9691 58.8559" fill="#E63614"/>
<path fill-rule="evenodd" clip-rule="evenodd" d="M42.6888 58.6445C43.4764 59.9363 43.9193 60.3901 44.294 60.7509C44.6686 61.1117 44.9749 61.3793 45.303 61.6237C45.6311 61.8681 45.9812 62.0892 46.2601 62.2638C46.539 62.4384 46.7468 62.5664 46.632 62.7584C46.5171 62.9504 46.0796 63.2064 45.6038 63.4159C45.128 63.6254 44.6139 63.7883 44.1162 63.8872C43.6185 63.9861 43.1373 64.0211 42.6123 64.0094C42.0872 63.9978 41.5184 63.9396 40.988 63.928C40.4575 63.9163 39.9653 63.9512 39.484 63.9803C39.0027 64.0094 38.5324 64.0327 38.0948 63.9861C37.6573 63.9396 37.2526 63.8232 36.8041 63.6661C36.3557 63.509 35.8635 63.3111 35.6611 63.0784C35.4588 62.8457 35.5462 62.578 35.9127 62.1998C36.2791 61.8216 36.9245 61.3328 37.5178 60.748C38.1112 60.1632 38.6527 59.4824 39.309 58.8889" fill="#E63614"/>
<path fill-rule="evenodd" clip-rule="evenodd" d="M14.7754 0.458999C16.9564 -0.0187204 18.3677 -0.0187207 19.5705 0.0665998C20.7732 0.151905 21.7675 0.322513 22.8634 0.510208C23.9592 0.697888 25.1566 0.902655 26.0173 0.98796C26.8779 1.07328 27.4018 1.03916 28.0861 0.94816C28.7703 0.857165 29.6149 0.709285 30.4328 0.59553C31.2507 0.481774 32.0419 0.402144 32.6994 0.402144C33.3569 0.402144 33.8808 0.481775 34.3939 0.606911C34.9071 0.732031 35.4096 0.902656 35.9335 1.13584C36.4574 1.36903 37.0026 1.66477 37.4944 2.02308C37.9862 2.3814 38.4246 2.80226 38.8736 3.29139C39.3226 3.78051 39.7824 4.33787 40.1405 4.90093C40.4987 5.464 40.7553 6.03275 41.0546 6.70387C41.354 7.37499 41.6961 8.1485 41.958 9.01868C42.22 9.88888 42.4017 10.8558 42.5086 11.8112C42.6156 12.7667 42.6476 13.7109 42.7064 14.655C42.7652 15.5991 42.8508 16.5432 42.9417 17.2826C43.0325 18.022 43.1287 18.5566 43.2944 19.2675C43.4602 19.9785 43.6954 20.8657 44.0589 21.8553C44.4224 22.845 44.9142 23.937 45.5022 25.1541C46.0902 26.3712 46.7745 27.7135 47.3411 28.8225C47.9078 29.9316 48.3568 30.8075 48.8807 31.9905C49.4045 33.1735 50.0033 34.6636 50.5538 36.0229C51.1045 37.3822 51.6069 38.6107 52.0667 39.97C52.5264 41.3293 52.9434 42.8195 53.1946 43.7977C53.4459 44.7759 53.5314 45.2423 53.6276 45.9134C53.7238 46.5846 53.8307 47.4604 53.9002 48.3135C53.9697 49.1667 54.0018 49.9971 53.9804 50.8047C53.9591 51.6123 53.8842 52.3972 53.8094 53.0001C53.7345 53.6029 53.6597 54.0238 53.5795 54.2854C53.4993 54.5471 53.4138 54.6494 53.3069 54.6835C53.2 54.7177 53.0717 54.6835 52.9113 54.5755C52.7509 54.4674 52.5585 54.2854 52.3393 53.7053C52.1201 53.1252 51.8742 52.1469 51.623 51.2597C51.3717 50.3724 51.1151 49.5762 50.8158 48.7799C50.5164 47.9837 50.1743 47.1874 49.7734 46.3684C49.3725 45.5494 48.9127 44.7077 48.4904 43.9626C48.0681 43.2176 47.6832 42.5692 47.416 42.1028C47.1487 41.6364 46.999 41.3521 46.8867 41.2326C46.7745 41.1132 46.6996 41.1587 46.6141 41.6706C46.5286 42.1824 46.4324 43.1607 46.3201 44.3494C46.2078 45.5381 46.0795 46.9372 45.9352 48.16C45.7909 49.3828 45.6305 50.4293 45.3365 51.5668C45.0425 52.7043 44.6148 53.9328 44.2887 54.8485C43.9626 55.7642 43.7381 56.367 43.551 56.8448C43.364 57.3225 43.2143 57.6752 43.0539 58.005C42.8935 58.3349 42.7225 58.642 42.53 58.9264C42.3376 59.2108 42.1237 59.4724 41.8565 59.6772C41.5892 59.8819 41.2684 60.0298 40.9637 60.1037C40.659 60.1777 40.3704 60.1777 40.0389 60.0981C39.7075 60.0184 39.3333 59.8592 38.9217 59.6885C38.5101 59.5179 38.061 59.3359 37.6334 59.1369C37.2057 58.9378 36.7995 58.7217 35.9495 58.625C35.0996 58.5283 33.8059 58.551 32.9453 58.6307C32.0846 58.7103 31.657 58.8468 31.1491 59.0458C30.6413 59.2449 30.0533 59.5065 29.5561 59.7056C29.059 59.9047 28.6527 60.0412 28.2411 60.1094C27.8295 60.1777 27.4125 60.1777 27.0276 60.0981C26.6428 60.0184 26.29 59.8592 25.8569 59.6146C25.424 59.37 24.9108 59.0402 24.4778 58.6932C24.0448 58.3463 23.6919 57.9823 23.1627 57.2657C22.6335 56.5491 21.9279 55.4798 21.3452 54.2001C20.7625 52.9204 20.3028 51.4303 19.9393 49.8094C19.5758 48.1884 19.3085 46.4367 19.1909 44.7532C19.0733 43.0697 19.1054 41.4544 19.2176 39.8676C19.3299 38.2808 19.5223 36.7225 19.7468 35.4086C19.9714 34.0948 20.228 33.0256 20.4792 32.0701C20.7304 31.1146 20.9764 30.2729 21.2917 29.0842C21.6071 27.8955 21.992 26.3599 22.3448 25.12C22.6976 23.8801 23.0184 22.936 23.5904 21.7359C24.1624 20.5359 24.9856 19.0798 25.8302 17.8172C26.6748 16.5546 27.5408 15.4854 28.1075 14.7517C28.6741 14.018 28.9414 13.6199 29.1124 13.1706C29.2835 12.7213 29.3583 12.2208 29.3583 11.6634C29.3583 11.106 29.2835 10.4918 29.1178 9.97989C28.9521 9.46801 28.6955 9.05851 28.2839 8.6092C27.8722 8.15988 27.3056 7.67075 26.5893 7.07924C25.873 6.48775 25.007 5.79388 24.1303 5.15689C23.2536 4.51989 22.3662 3.93977 21.5002 3.45633C20.6342 2.97289 19.7896 2.58613 19.0947 2.27332C18.3997 1.96052 17.8545 1.72164 17.205 1.49982C16.5555 1.27801 15.8017 1.07326 15.032 0.902639" fill="#1B1918"/>
<path fill-rule="evenodd" clip-rule="evenodd" d="M15.1824 0.45144C15.5032 0.297885 16.2302 0.138641 17.0641 0.0590261C17.898 -0.0206043 18.8388 -0.0206041 19.8064 0.0647479C20.774 0.150037 21.7683 0.32063 22.8641 0.508325C23.96 0.696021 25.1574 0.900755 26.018 0.986091C26.8787 1.07138 27.4026 1.03729 28.0868 0.946277C28.7711 0.855267 29.6157 0.707417 30.4336 0.593661C31.2514 0.479906 32.0426 0.400244 32.7001 0.400244C33.3576 0.400244 33.8815 0.479908 34.3947 0.605059C34.9079 0.730163 35.4103 0.900756 35.9342 1.13394C36.4581 1.36713 37.0034 1.6629 37.4952 2.02124C37.987 2.37953 38.4253 2.80036 38.8744 3.28953C39.3234 3.77864 39.7831 4.33598 40.1413 4.89905C40.4994 5.4621 40.756 6.03088 41.0554 6.70202C41.3547 7.37311 41.6968 8.14662 41.9588 9.0168C42.2207 9.887 42.4025 10.8539 42.5094 11.8094C42.6163 12.7649 42.6483 13.709 42.7071 14.6531C42.766 15.5972 42.8515 16.5413 42.9424 17.2808C43.0333 18.0201 43.1295 18.5547 43.2952 19.2657C43.4609 19.9766 43.6961 20.8638 44.0596 21.8535C44.4231 22.8431 44.9149 23.9351 45.5029 25.1522C46.091 26.3693 46.7752 27.7116 47.3418 28.8206C47.9085 29.9297 48.3575 30.8056 48.8814 31.9886C49.4053 33.1716 50.004 34.6617 50.5546 36.021C51.1052 37.3803 51.6077 38.6088 52.0674 39.9681C52.5272 41.3274 52.9441 42.8176 53.1954 43.7958C53.4466 44.7741 53.5321 45.2404 53.6283 45.9115C53.7246 46.5827 53.8315 47.4585 53.901 48.3117C53.9705 49.1648 54.0025 49.9952 53.9812 50.8028C53.9598 51.6104 53.8849 52.3953 53.8101 52.9982C53.7353 53.6011 53.6604 54.0219 53.5802 54.2835C53.5 54.5452 53.4145 54.6476 53.3076 54.6817C53.2007 54.7158 53.0724 54.6817 52.912 54.5736C52.8334 54.5206 52.747 54.4497 52.6536 54.323C52.5302 53.5968 52.2326 52.5315 51.7142 50.5389C51.1609 48.4116 50.3561 45.2272 49.5576 42.5848C48.759 39.9423 47.9668 37.8417 47.2248 36.0422C46.4829 34.2426 45.7913 32.7441 45.0933 31.3594C44.3954 29.9745 43.6912 28.7035 43.0813 27.4392C42.4714 26.1748 41.9558 24.9171 41.5533 23.7464C41.1509 22.5757 40.8617 21.4919 40.6605 20.5019C40.4593 19.5118 40.3461 18.6153 40.2832 17.5918C40.2204 16.5683 40.2078 15.4176 40.2329 14.4409C40.2581 13.4642 40.321 12.6614 40.2707 11.8186C40.2204 10.9756 40.0569 10.0926 39.8683 9.30986C39.6796 8.52715 39.4658 7.8448 39.1955 7.19591C38.9251 6.54698 38.5982 5.93155 38.202 5.38301C37.8059 4.83444 37.3406 4.35273 36.7944 3.88529C36.2482 3.4178 35.6212 2.96453 34.9484 2.83075C34.2756 2.69693 33.5571 2.88263 33.0784 3.03569C32.5997 3.18873 32.3608 3.30913 32.1281 3.44296C31.8955 3.57673 31.6691 3.7239 31.5308 3.93801C31.3925 4.15208 31.3421 4.43302 31.3736 4.69395C31.405 4.95484 31.5182 5.19567 31.6817 5.4432C31.8452 5.69073 32.0589 5.94491 32.235 6.19914C32.4111 6.45332 32.5494 6.70755 32.5997 6.98184C32.65 7.25609 32.6122 7.55045 32.3733 7.81137C32.1344 8.07227 31.6943 8.29968 31.1724 8.46697C30.6505 8.6342 30.0469 8.74121 29.5187 8.81481C29.2 8.85921 28.9088 8.89143 28.5553 8.9262C28.4734 8.82088 28.3835 8.71525 28.2846 8.60731C27.873 8.15801 27.3064 7.66885 26.5901 7.07738C25.8737 6.48585 25.0077 5.79202 24.131 5.15501C23.2543 4.51801 22.367 3.93789 21.501 3.45444C20.635 2.971 19.7904 2.58425 19.0954 2.27145C18.4005 1.95863 17.8552 1.71974 17.3313 1.53208C16.8075 1.34438 16.305 1.20788 15.9254 1.1112C15.5459 1.01451 15.2893 0.957625 15.1183 0.855265C14.9472 0.752859 14.8617 0.60501 15.1824 0.45144Z" fill="#E63614"/>
<path fill-rule="evenodd" clip-rule="evenodd" d="M33.9848 3.2121C34.1027 3.13063 34.2352 3.07873 34.3749 3.05936C34.5147 3.03998 34.6588 3.05351 34.799 3.09918C34.9393 3.14485 35.073 3.22175 35.1925 3.3255C35.312 3.42926 35.4149 3.55783 35.4954 3.70387C35.6166 3.92383 35.6825 4.17523 35.6846 4.42628C35.6868 4.67733 35.6251 4.91675 35.5075 5.11428C35.3899 5.31181 35.2215 5.45856 35.0237 5.53598C34.826 5.61341 34.6076 5.61802 34.3964 5.54924C34.1851 5.48047 33.9904 5.34139 33.8369 5.14959C33.6833 4.9578 33.5779 4.72191 33.5338 4.47174C33.4898 4.22158 33.5091 3.96838 33.5894 3.74416C33.6696 3.51995 33.8072 3.33479 33.9848 3.2121Z" fill="#E63614"/>
<path fill-rule="evenodd" clip-rule="evenodd" d="M37.7037 25.0317C38.0508 24.5239 38.3763 24.3392 38.6185 24.2469C38.8608 24.1546 39.0199 24.1546 39.179 24.2084C39.3381 24.2623 39.4972 24.37 39.6347 24.5162C39.7721 24.6624 39.8878 24.8471 39.9456 25.1856C40.0035 25.5242 40.0035 26.0166 39.9673 27.3324C39.9312 28.6481 39.8588 30.7872 39.8661 33.1417C39.8733 35.4962 39.9601 38.0661 40.0613 40.1821C40.1626 42.2981 40.2783 43.9601 40.3723 45.122C40.4663 46.2838 40.5387 46.9455 40.4736 47.3072C40.4085 47.6688 40.206 47.7304 39.924 47.5303C39.6419 47.3303 39.2803 46.8686 38.8464 45.9453C38.4125 45.0219 37.9062 43.6369 37.5374 42.1442C37.1685 40.6515 36.9371 39.0511 36.7997 36.8427C36.6623 34.6344 36.6189 31.8182 36.7925 28.4481" fill="#A5C500"/>
<path fill-rule="evenodd" clip-rule="evenodd" d="M31.9602 58.7819C31.6623 58.8528 31.417 58.9403 31.1497 59.0451C30.6418 59.2442 30.0538 59.5058 29.5566 59.7049C29.0595 59.904 28.6532 60.0405 28.2416 60.1087C27.83 60.177 27.413 60.177 27.0282 60.0973C26.6433 60.0177 26.2905 59.8584 25.8575 59.6139C25.4245 59.3693 24.9113 59.0394 24.4783 58.6925C24.0453 58.3456 23.6924 57.9816 23.1632 57.265C22.634 56.5484 21.9284 55.4791 21.3457 54.1994C20.7631 52.9197 20.3033 51.4296 19.9398 49.8086C19.5763 48.1877 19.309 46.4359 19.1914 44.7524C19.0738 43.069 19.1059 41.4537 19.2182 39.8669C19.3304 38.2801 19.5228 36.7217 19.7474 35.408C19.9719 34.0941 20.2285 33.0248 20.4797 32.0694C20.731 31.1139 20.9769 30.2721 21.2923 29.0834C21.6077 27.8948 21.9925 26.3591 22.3454 25.1192C22.6982 23.8794 23.0189 22.9353 23.5909 21.7352C24.1629 20.5352 24.9861 19.0791 25.8307 17.8165C26.6753 16.5539 27.5413 15.4846 28.108 14.7509C28.6746 14.0173 28.9419 13.6192 29.113 13.1699C29.284 12.7205 29.3588 12.2201 29.3588 11.6627C29.3588 11.1053 29.284 10.4911 29.1183 9.97921C29.0959 9.91017 29.0719 9.84302 29.0461 9.77734C29.1173 9.82145 29.1794 9.86304 29.2393 9.90284C29.5033 10.0784 29.7233 10.2188 29.9323 10.4412C30.1412 10.6635 30.3392 10.9677 30.4932 11.2135C30.6472 11.4593 30.7572 11.6465 30.8122 11.8806C30.8672 12.1146 30.8672 12.3955 30.7022 12.7934C30.5372 13.1913 30.2072 13.7062 29.7563 14.4318C29.3053 15.1573 28.7333 16.0935 27.9964 17.5563C27.2594 19.0191 26.3575 21.0086 25.7745 22.8342C25.1916 24.6597 24.9276 26.3215 24.6197 28.2993C24.3117 30.277 23.9597 32.5707 23.6627 34.4431C23.3657 36.3155 23.1237 37.7666 22.9478 39.3816C22.7718 40.9965 22.6618 42.7753 22.5958 44.3668C22.5298 45.9584 22.5078 47.3627 22.6508 48.5681C22.7938 49.7735 23.1017 50.7799 23.5637 51.915C24.0257 53.0502 24.6416 54.3141 25.2796 55.2268C25.9175 56.1397 26.5775 56.7014 27.3475 57.1812C28.1174 57.661 28.9973 58.0589 29.8333 58.2929C30.6654 58.5259 31.4539 58.5966 31.9602 58.7819Z" fill="#1AB4E4"/>
<path fill-rule="evenodd" clip-rule="evenodd" d="M11.4542 56.4639C12.6042 49.1441 13.3632 46.5812 14.0617 44.3753C14.7601 42.1693 15.3981 40.3203 16.0132 38.5904C16.6283 36.8605 17.2205 35.2497 17.7634 34.0324C18.3062 32.815 18.7996 31.991 19.2223 31.3684C19.645 30.7457 19.997 30.3244 20.3278 29.9478C20.6586 29.5712 20.9684 29.2393 21.4375 29.0173C21.9066 28.7952 22.5351 28.683 23.1243 28.7556C23.7136 28.8282 24.2635 29.0857 24.8685 29.7761C25.4735 30.4666 26.1334 31.5901 26.8264 33.1348C27.5193 34.6796 28.2453 36.6456 28.9713 38.5649C29.6972 40.4841 30.4232 42.3565 31.0611 43.9247C31.6991 45.4929 32.2491 46.7568 32.909 47.9387C33.569 49.1207 34.3389 50.2207 35.0649 51.0984C35.7909 51.9761 36.4728 52.6315 37.0778 53.1698C37.6828 53.7082 38.2107 54.1295 38.7277 54.3284C39.2446 54.5274 39.7506 54.5039 40.3996 54.2114C41.0486 53.9188 41.8405 53.3571 42.5115 52.7368C43.1824 52.1166 43.7324 51.4378 44.2604 50.7357C44.7883 50.0335 45.2943 49.308 45.5693 48.7696C45.8442 48.2313 45.8882 47.8802 45.7013 47.9387C45.5143 47.9973 45.0963 48.4653 44.4473 48.9334C43.7984 49.4016 42.9184 49.8697 42.1265 50.1505C41.3345 50.4314 40.6306 50.525 39.9486 50.4431C39.2666 50.3612 38.6067 50.1037 37.7927 49.2728C36.9788 48.4419 36.0109 47.0376 35.0429 45.1886C34.075 43.3396 33.107 41.0458 32.1831 38.8223C31.2591 36.5988 30.3792 34.4455 29.5872 32.5848C28.7953 30.7241 28.0913 29.1559 27.4644 27.8569C26.8374 26.5579 26.2874 25.5281 25.7815 24.8025C25.2755 24.0769 24.8135 23.6556 24.4176 23.2578C24.0216 22.8599 23.6916 22.4854 23.3836 22.3684C23.0756 22.2513 22.7897 22.3918 22.0857 23.1641C21.3817 23.9365 20.2598 25.3408 19.1489 26.909C18.0379 28.4772 16.938 30.2092 15.871 32.1518C14.8041 34.0945 13.7702 36.2478 12.9452 38.5298C12.1203 40.8118 11.5043 43.2225 11.0424 45.1535C10.5804 47.0844 10.2724 48.5355 10.1184 49.7877C9.96441 51.0399 9.96441 52.0932 10.0964 53.3571" fill="#FFDE00"/>
</g>
<defs>
<clipPath id="clip0_5574_18392">
<rect width="64" height="64" fill="white"/>
</clipPath>
</defs>
</svg>
