<svg width="540" height="540" viewBox="0 0 540 540" fill="none" xmlns="http://www.w3.org/2000/svg">
<g clip-path="url(#clip0_5574_18342)">
<path fill-rule="evenodd" clip-rule="evenodd" d="M216.053 370.262C208.522 377.57 202.209 382.221 197.391 385.58C192.574 388.94 189.252 391.007 186.261 392.631C183.271 394.255 180.613 395.436 178.841 396.322C177.069 397.208 176.183 397.799 177.475 399.054C178.767 400.309 182.238 402.228 185.597 403.372C188.956 404.517 192.205 404.886 196.45 405.107C200.696 405.329 205.938 405.403 211.66 405.55C217.382 405.698 223.583 405.919 228.087 406.104C232.591 406.288 235.396 406.436 238.608 405.698C241.82 404.96 245.438 403.335 247.763 402.191C250.089 401.047 251.123 400.382 251.086 398.684C251.049 396.986 249.941 394.255 248.28 391.782C246.619 389.309 244.404 387.094 242.447 385.47C240.491 383.846 238.793 382.812 237.316 382.037C235.839 381.262 234.584 380.745 232.351 379.767C230.118 378.788 226.906 377.349 220.04 373.362" fill="#E63614"/>
<path fill-rule="evenodd" clip-rule="evenodd" d="M339.647 372.035C344.964 380.23 347.954 383.109 350.482 385.397C353.011 387.686 355.078 389.384 357.293 390.934C359.508 392.485 361.871 393.888 363.754 394.995C365.636 396.102 367.039 396.914 366.264 398.132C365.489 399.351 362.535 400.975 359.324 402.303C356.112 403.632 352.642 404.666 349.283 405.294C345.923 405.921 342.675 406.143 339.131 406.069C335.587 405.995 331.748 405.626 328.167 405.552C324.586 405.478 321.264 405.699 318.015 405.884C314.766 406.069 311.592 406.216 308.638 405.921C305.685 405.626 302.953 404.887 299.926 403.891C296.899 402.894 293.576 401.639 292.211 400.163C290.845 398.686 291.435 396.988 293.909 394.589C296.382 392.19 300.738 389.089 304.744 385.379C308.749 381.669 312.404 377.351 316.834 373.586" fill="#E63614"/>
<path fill-rule="evenodd" clip-rule="evenodd" d="M151.236 2.89981C165.958 -0.130721 175.484 -0.130722 183.603 0.41053C191.722 0.951682 198.433 2.03398 205.83 3.22467C213.227 4.41527 221.31 5.71426 227.119 6.25541C232.929 6.79666 236.465 6.58018 241.083 6.00293C245.702 5.42568 251.403 4.48757 256.924 3.76593C262.445 3.04429 267.785 2.53914 272.223 2.53914C276.661 2.53914 280.198 3.0443 283.662 3.83813C287.126 4.63186 290.517 5.71426 294.054 7.19353C297.59 8.6728 301.27 10.5489 304.59 12.8219C307.91 15.095 310.868 17.7649 313.899 20.8678C316.93 23.9706 320.033 27.5064 322.451 31.0783C324.869 34.6503 326.601 38.2583 328.621 42.5157C330.642 46.7731 332.951 51.6801 334.719 57.2003C336.487 62.7206 337.714 68.8542 338.436 74.9156C339.157 80.9771 339.374 86.9664 339.771 92.9556C340.168 98.9449 340.745 104.934 341.359 109.625C341.972 114.315 342.621 117.707 343.74 122.217C344.859 126.727 346.446 132.355 348.9 138.633C351.354 144.911 354.673 151.838 358.642 159.559C362.612 167.281 367.23 175.795 371.055 182.831C374.88 189.867 377.911 195.423 381.447 202.928C384.983 210.432 389.024 219.885 392.741 228.508C396.458 237.131 399.849 244.925 402.953 253.548C406.056 262.171 408.87 271.624 410.566 277.83C412.262 284.035 412.839 286.994 413.489 291.251C414.138 295.509 414.86 301.065 415.329 306.477C415.798 311.889 416.015 317.157 415.87 322.28C415.726 327.404 415.221 332.383 414.716 336.207C414.21 340.032 413.705 342.702 413.164 344.361C412.623 346.021 412.046 346.67 411.324 346.887C410.602 347.103 409.736 346.887 408.654 346.201C407.571 345.516 406.272 344.361 404.793 340.681C403.313 337.001 401.654 330.795 399.958 325.167C398.262 319.538 396.53 314.487 394.509 309.436C392.488 304.384 390.179 299.333 387.473 294.138C384.767 288.942 381.663 283.603 378.813 278.876C375.962 274.149 373.364 270.036 371.56 267.078C369.756 264.119 368.746 262.315 367.988 261.557C367.23 260.8 366.725 261.088 366.148 264.336C365.57 267.583 364.921 273.789 364.163 281.329C363.405 288.87 362.539 297.746 361.565 305.503C360.591 313.26 359.508 319.899 357.524 327.115C355.539 334.331 352.653 342.124 350.451 347.933C348.25 353.742 346.735 357.566 345.472 360.597C344.209 363.628 343.199 365.865 342.116 367.958C341.034 370.05 339.879 371.999 338.58 373.802C337.281 375.606 335.838 377.266 334.034 378.565C332.229 379.864 330.064 380.802 328.008 381.271C325.951 381.74 324.003 381.74 321.765 381.235C319.528 380.73 317.002 379.72 314.224 378.637C311.446 377.555 308.415 376.4 305.528 375.138C302.641 373.875 299.899 372.504 294.162 371.89C288.424 371.277 279.692 371.421 273.883 371.926C268.074 372.431 265.187 373.297 261.759 374.56C258.331 375.823 254.362 377.483 251.006 378.746C247.651 380.008 244.908 380.874 242.13 381.307C239.351 381.74 236.537 381.74 233.939 381.235C231.341 380.73 228.96 379.72 226.037 378.168C223.114 376.617 219.65 374.524 216.727 372.323C213.805 370.122 211.423 367.813 207.851 363.267C204.279 358.721 199.516 351.938 195.583 343.82C191.65 335.702 188.546 326.249 186.093 315.966C183.639 305.683 181.835 294.571 181.041 283.891C180.247 273.211 180.464 262.965 181.221 252.898C181.979 242.832 183.278 232.946 184.794 224.612C186.309 216.277 188.041 209.494 189.737 203.433C191.433 197.371 193.093 192.031 195.222 184.491C197.351 176.95 199.949 167.208 202.33 159.343C204.712 151.477 206.877 145.488 210.737 137.875C214.598 130.262 220.155 121.026 225.856 113.016C231.557 105.006 237.403 98.2234 241.228 93.5691C245.053 88.9148 246.857 86.3891 248.011 83.5387C249.166 80.6885 249.671 77.5135 249.671 73.9777C249.671 70.4418 249.166 66.5453 248.047 63.2979C246.929 60.0507 245.197 57.453 242.419 54.6026C239.64 51.7523 235.815 48.6494 230.98 44.897C226.145 41.1447 220.3 36.743 214.382 32.7021C208.464 28.6611 202.474 24.9809 196.629 21.9141C190.784 18.8473 185.082 16.3938 180.392 14.4094C175.701 12.4251 172.02 10.9097 167.636 9.50251C163.252 8.09544 158.164 6.79656 152.968 5.71415" fill="#1B1918"/>
<path fill-rule="evenodd" clip-rule="evenodd" d="M153.98 2.86382C156.145 1.88971 161.052 0.879502 166.681 0.374447C172.31 -0.130708 178.66 -0.130708 185.191 0.410744C191.722 0.951797 198.434 2.03399 205.831 3.22469C213.228 4.41538 221.31 5.71417 227.12 6.25552C232.929 6.79657 236.466 6.5803 241.084 6.00295C245.703 5.4256 251.404 4.48767 256.925 3.76604C262.445 3.0444 267.786 2.53905 272.224 2.53905C276.662 2.53905 280.198 3.04441 283.662 3.83834C287.126 4.63197 290.518 5.71417 294.054 7.19344C297.59 8.67271 301.271 10.549 304.591 12.8222C307.91 15.0951 310.869 17.7648 313.9 20.8679C316.931 23.9708 320.034 27.5063 322.452 31.0783C324.869 34.6502 326.601 38.2584 328.622 42.5159C330.643 46.7731 332.952 51.6801 334.72 57.2003C336.488 62.7206 337.715 68.8543 338.437 74.9158C339.158 80.9772 339.375 86.9663 339.771 92.9556C340.169 98.945 340.746 104.934 341.359 109.625C341.973 114.315 342.622 117.706 343.741 122.217C344.859 126.727 346.447 132.355 348.901 138.633C351.354 144.911 354.674 151.838 358.643 159.559C362.612 167.281 367.231 175.795 371.056 182.831C374.881 189.866 377.912 195.423 381.448 202.928C384.984 210.432 389.025 219.885 392.742 228.508C396.458 237.131 399.85 244.925 402.953 253.548C406.057 262.171 408.871 271.624 410.567 277.83C412.263 284.036 412.84 286.994 413.49 291.251C414.139 295.509 414.861 301.065 415.33 306.477C415.799 311.889 416.015 317.157 415.871 322.28C415.727 327.404 415.221 332.383 414.716 336.207C414.211 340.032 413.706 342.702 413.165 344.361C412.624 346.021 412.046 346.671 411.325 346.887C410.603 347.103 409.737 346.887 408.654 346.201C408.124 345.865 407.541 345.415 406.91 344.611C406.077 340.005 404.068 333.247 400.569 320.606C396.835 307.111 391.402 286.91 386.012 270.147C380.622 253.384 375.274 240.059 370.266 228.643C365.258 217.227 360.589 207.721 355.878 198.936C351.167 190.151 346.414 182.088 342.297 174.067C338.18 166.046 334.7 158.068 331.983 150.641C329.267 143.214 327.315 136.34 325.957 130.059C324.598 123.778 323.834 118.091 323.41 111.598C322.986 105.105 322.901 97.8056 323.071 91.6096C323.24 85.4136 323.665 80.3211 323.325 74.9739C322.986 69.6266 321.882 64.0247 320.609 59.0595C319.336 54.0941 317.893 49.7655 316.068 45.649C314.243 41.5324 312.036 37.6282 309.362 34.1484C306.688 30.6685 303.548 27.6126 299.861 24.6473C296.174 21.6817 291.941 18.8062 287.4 17.9576C282.858 17.1087 278.009 18.2867 274.778 19.2577C271.546 20.2285 269.933 20.9923 268.363 21.8412C266.793 22.6899 265.265 23.6235 264.331 24.9818C263.397 26.3397 263.058 28.122 263.27 29.7772C263.482 31.4323 264.246 32.9601 265.35 34.5303C266.453 36.1006 267.896 37.713 269.085 39.3258C270.273 40.9383 271.206 42.551 271.546 44.2911C271.886 46.0308 271.631 47.8981 270.018 49.5534C268.405 51.2084 265.435 52.6511 261.912 53.7123C258.389 54.7732 254.315 55.4521 250.75 55.9189C248.598 56.2006 246.633 56.405 244.246 56.6256C243.694 55.9574 243.087 55.2874 242.42 54.6026C239.641 51.7524 235.816 48.6493 230.981 44.8971C226.146 41.1446 220.3 36.7431 214.383 32.7021C208.465 28.6611 202.475 24.981 196.63 21.9141C190.784 18.8473 185.083 16.3938 180.392 14.4095C175.702 12.4251 172.021 10.9096 168.485 9.71912C164.949 8.52843 161.557 7.66249 158.995 7.04915C156.433 6.4358 154.701 6.07493 153.547 5.42559C152.392 4.77595 151.815 3.83803 153.98 2.86382Z" fill="#E63614"/>
<path fill-rule="evenodd" clip-rule="evenodd" d="M280.899 20.3866C281.695 19.8698 282.59 19.5406 283.533 19.4177C284.476 19.2948 285.448 19.3806 286.395 19.6703C287.342 19.96 288.244 20.4479 289.051 21.1061C289.857 21.7642 290.552 22.5799 291.095 23.5063C291.914 24.9017 292.358 26.4965 292.373 28.0891C292.387 29.6817 291.971 31.2006 291.177 32.4536C290.383 33.7067 289.247 34.6376 287.912 35.1288C286.577 35.6199 285.103 35.6492 283.677 35.2129C282.251 34.7766 280.937 33.8943 279.901 32.6776C278.864 31.4609 278.152 29.9645 277.855 28.3775C277.558 26.7905 277.688 25.1843 278.23 23.7619C278.772 22.3395 279.7 21.1649 280.899 20.3866Z" fill="#E63614"/>
<path fill-rule="evenodd" clip-rule="evenodd" d="M306.001 158.802C308.344 155.581 310.541 154.409 312.176 153.824C313.811 153.238 314.885 153.238 315.959 153.579C317.033 153.921 318.107 154.605 319.035 155.532C319.962 156.459 320.743 157.631 321.134 159.779C321.524 161.926 321.524 165.05 321.28 173.397C321.036 181.744 320.548 195.314 320.597 210.25C320.646 225.186 321.231 241.489 321.915 254.913C322.598 268.336 323.379 278.879 324.014 286.25C324.648 293.62 325.137 297.818 324.697 300.112C324.258 302.406 322.891 302.797 320.987 301.528C319.084 300.259 316.643 297.33 313.714 291.473C310.785 285.615 307.368 276.829 304.878 267.36C302.388 257.89 300.826 247.737 299.899 233.728C298.971 219.719 298.678 201.854 299.85 180.475" fill="#A5C500"/>
<path fill-rule="evenodd" clip-rule="evenodd" d="M267.231 372.892C265.22 373.342 263.565 373.897 261.76 374.562C258.332 375.825 254.363 377.484 251.007 378.747C247.652 380.01 244.909 380.876 242.131 381.309C239.352 381.742 236.538 381.742 233.94 381.237C231.342 380.732 228.961 379.721 226.038 378.17C223.115 376.619 219.651 374.526 216.728 372.325C213.806 370.124 211.424 367.815 207.852 363.269C204.28 358.723 199.517 351.94 195.584 343.822C191.651 335.704 188.547 326.251 186.094 315.968C183.64 305.685 181.836 294.573 181.042 283.893C180.248 273.213 180.465 262.966 181.223 252.9C181.98 242.834 183.279 232.948 184.795 224.614C186.31 216.279 188.042 209.496 189.738 203.435C191.434 197.373 193.094 192.033 195.223 184.493C197.352 176.952 199.95 167.21 202.331 159.345C204.713 151.479 206.878 145.49 210.739 137.877C214.599 130.264 220.156 121.028 225.857 113.018C231.558 105.008 237.404 98.2252 241.229 93.5708C245.054 88.9166 246.858 86.3911 248.012 83.5408C249.167 80.6903 249.672 77.5155 249.672 73.9796C249.672 70.4436 249.167 66.5472 248.048 63.3001C247.898 62.8622 247.736 62.4362 247.561 62.0195C248.042 62.2993 248.461 62.5632 248.865 62.8157C250.647 63.9294 252.132 64.8202 253.543 66.2309C254.953 67.6412 256.29 69.5712 257.329 71.1304C258.369 72.6893 259.111 73.8769 259.482 75.3619C259.853 76.8465 259.853 78.6285 258.74 81.1525C257.626 83.6766 255.399 86.9432 252.355 91.546C249.311 96.1485 245.45 102.088 240.476 111.367C235.501 120.647 229.413 133.268 225.478 144.849C221.543 156.43 219.761 166.972 217.683 179.518C215.604 192.064 213.228 206.615 211.223 218.493C209.219 230.371 207.585 239.576 206.397 249.821C205.209 260.066 204.467 271.35 204.022 281.447C203.576 291.543 203.427 300.452 204.393 308.098C205.358 315.745 207.436 322.129 210.555 329.33C213.673 336.532 217.831 344.549 222.137 350.34C226.443 356.131 230.898 359.694 236.095 362.738C241.292 365.781 247.232 368.306 252.874 369.79C258.492 371.268 263.814 371.717 267.231 372.892Z" fill="#1AB4E4"/>
<path fill-rule="evenodd" clip-rule="evenodd" d="M128.816 358.204C136.579 311.769 141.702 295.51 146.416 281.516C151.131 267.522 155.437 255.793 159.589 244.819C163.741 233.845 167.739 223.626 171.403 215.904C175.067 208.181 178.397 202.954 181.25 199.004C184.104 195.054 186.48 192.381 188.713 189.992C190.946 187.603 193.036 185.498 196.203 184.089C199.369 182.681 203.612 181.969 207.589 182.429C211.567 182.89 215.279 184.523 219.362 188.903C223.446 193.283 227.901 200.41 232.578 210.21C237.256 220.009 242.156 232.482 247.056 244.657C251.956 256.832 256.856 268.71 261.163 278.658C265.469 288.606 269.181 296.624 273.636 304.122C278.091 311.62 283.288 318.599 288.188 324.167C293.088 329.734 297.692 333.892 301.775 337.307C305.859 340.722 309.422 343.395 312.912 344.657C316.401 345.919 319.817 345.77 324.197 343.914C328.578 342.058 333.923 338.495 338.452 334.56C342.981 330.625 346.694 326.32 350.257 321.865C353.821 317.411 357.236 312.808 359.093 309.393C360.949 305.978 361.246 303.751 359.983 304.122C358.721 304.493 355.9 307.463 351.52 310.432C347.139 313.402 341.199 316.372 335.854 318.153C330.508 319.935 325.756 320.529 321.153 320.009C316.55 319.49 312.095 317.856 306.601 312.585C301.107 307.314 294.573 298.406 288.04 286.676C281.506 274.946 274.972 260.395 268.736 246.29C262.499 232.185 256.559 218.525 251.214 206.721C245.868 194.917 241.116 184.969 236.884 176.728C232.652 168.488 228.94 161.955 225.525 157.352C222.11 152.749 218.991 150.076 216.318 147.552C213.646 145.028 211.418 142.652 209.339 141.91C207.261 141.168 205.33 142.059 200.578 146.958C195.827 151.858 188.254 160.767 180.755 170.715C173.256 180.663 165.831 191.65 158.63 203.974C151.428 216.298 144.449 229.958 138.88 244.434C133.312 258.911 129.154 274.204 126.036 286.453C122.918 298.703 120.839 307.908 119.799 315.852C118.76 323.795 118.76 330.477 119.651 338.495" fill="#FFDE00"/>
<path fill-rule="evenodd" clip-rule="evenodd" d="M123.777 445.17L131.855 445.012L163.279 523.093C163.474 523.579 163.922 523.88 164.445 523.876C164.969 523.873 165.414 523.568 165.604 523.08L196.448 443.748L204.533 443.59L165.364 539.986L163.493 540L123.777 445.17Z" fill="#1B1918"/>
<path fill-rule="evenodd" clip-rule="evenodd" d="M282.652 445.729L290.221 445.388L313.417 518.011C313.607 518.608 313.892 518.941 314.177 518.954C314.441 518.965 314.707 518.702 314.896 518.119L339.146 443.105L345.229 443.361L315.563 530.42L311.181 530.673L282.652 445.729Z" fill="#1B1918"/>
<path fill-rule="evenodd" clip-rule="evenodd" d="M359.92 443.125H367.13L367.37 480.191L367.682 495.007C369.082 508.477 374.259 517.084 384.454 518.454C387.157 518.817 390.289 518.821 393.75 518.184C400.715 516.902 405.815 514.96 408.886 508.234C411.719 502.028 413.2 492.638 413.524 483.068L414.825 443.125H421.21L419.367 491.915C418.965 502.575 412.877 514.706 404.416 520.041C400.829 522.303 396.798 523.152 392.565 523.87C391.117 524.116 389.612 524.245 388.063 524.245H387.664C386.2 524.245 384.769 524.141 383.382 523.94C368.888 521.842 361.461 510.821 361.114 495.545L359.92 443.125Z" fill="#1B1918"/>
<path fill-rule="evenodd" clip-rule="evenodd" d="M211.416 456.757C223.833 452.527 233.056 449.721 241.379 450.766C251.891 452.086 260.101 459.099 261.83 472.084L262.264 510.633C262.679 519.438 267.375 523.72 277.614 522.147L278.604 526.624C263.72 530.716 256.675 526.67 256.503 513.358C251.82 520.616 242.958 526.169 232.865 527.931C226.735 529.001 222.588 529.018 216.728 526.509C212.246 524.592 209.506 522.008 207.536 518.659C202.95 510.858 204.067 499.505 208.072 487.071L254.871 472.127C252.582 454.699 237.961 452.402 214.097 461.449L211.416 456.757ZM216.219 491.32L254.619 478.08L254.54 500.647C254.525 504.824 253.703 509.477 251.306 513.013C246.909 519.497 239.414 523.156 227.906 522.353C223.814 522.068 219.379 521.067 216.206 517.511C209.137 509.586 209.003 500.173 216.219 491.32Z" fill="#1B1918"/>
</g>
<defs>
<clipPath id="clip0_5574_18342">
<rect width="540" height="540" fill="white"/>
</clipPath>
</defs>
</svg>
