<svg width="299" height="97" viewBox="0 0 299 97" fill="none" xmlns="http://www.w3.org/2000/svg">
<path fill-rule="evenodd" clip-rule="evenodd" d="M0.777344 2.17021L8.85454 2.01214L40.2786 80.0933C40.4742 80.5789 40.9223 80.8796 41.4454 80.8764C41.9691 80.8734 42.4135 80.5677 42.6035 80.0796L73.4476 0.747972L81.5328 0.589844L42.3641 96.986L40.4929 97.0004L0.777344 2.17021Z" fill="#1B1918"/>
<path fill-rule="evenodd" clip-rule="evenodd" d="M159.652 2.72914L167.221 2.38847L190.417 75.0112C190.607 75.608 190.892 75.9409 191.177 75.9538C191.441 75.9655 191.707 75.702 191.896 75.1185L216.146 0.105469L222.229 0.360573L192.563 87.4199L188.181 87.6727L159.652 2.72914Z" fill="#1B1918"/>
<path fill-rule="evenodd" clip-rule="evenodd" d="M236.92 0.125H244.13L244.37 37.1912L244.682 52.0067C246.082 65.4767 251.259 74.0843 261.454 75.4541C264.157 75.8171 267.289 75.8209 270.75 75.1835C277.715 73.9019 282.815 71.9596 285.886 65.2336C288.719 59.0276 290.2 49.6376 290.524 40.0676L291.825 0.125H298.21L296.367 48.9152C295.965 59.575 289.877 71.7059 281.416 77.0408C277.829 79.303 273.798 80.1516 269.565 80.8702C268.117 81.1158 266.612 81.2452 265.063 81.2452H264.664C263.2 81.2452 261.769 81.1408 260.382 80.9402C245.888 78.8424 238.461 67.8214 238.114 52.5453L236.92 0.125Z" fill="#1B1918"/>
<path fill-rule="evenodd" clip-rule="evenodd" d="M88.4162 13.7565C100.833 9.52708 110.056 6.7211 118.379 7.76601C128.891 9.08649 137.101 16.0986 138.83 29.0838L139.264 67.6328C139.679 76.4379 144.375 80.7198 154.614 79.1469L155.604 83.6238C140.72 87.7163 133.675 83.67 133.503 70.3581C128.82 77.6164 119.958 83.1695 109.865 84.9311C103.735 86.001 99.5882 86.0178 93.7278 83.5094C89.2462 81.5916 86.5063 79.0081 84.5364 75.6586C79.9498 67.8578 81.0666 56.505 85.072 44.071L131.871 29.1268C129.582 11.6993 114.961 9.40206 91.0967 18.449L88.4162 13.7565ZM93.2185 48.3205L131.619 35.0798L131.54 57.6473C131.525 61.8237 130.703 66.4773 128.306 70.0125C123.909 76.4966 116.414 80.1561 104.906 79.3531C100.814 79.0675 96.379 78.067 93.206 74.5106C86.137 66.5855 86.0026 57.1731 93.2185 48.3205Z" fill="#1B1918"/>
</svg>
